<?xml version="1.0" standalone="no"?>
<!DOCTYPE svg PUBLIC "-//W3C//DTD SVG 20010904//EN"
 "http://www.w3.org/TR/2001/REC-SVG-20010904/DTD/svg10.dtd">
<svg version="1.0" xmlns="http://www.w3.org/2000/svg"
 width="970.000000pt" height="970.000000pt" viewBox="0 0 970.000000 970.000000"
 preserveAspectRatio="xMidYMid meet">

<g transform="translate(0.000000,970.000000) scale(0.100000,-0.100000)"
fill="#000000" stroke="none">
<path d="M4435 9470 c-292 -27 -565 -77 -840 -155 -160 -45 -406 -128 -490
-165 -22 -10 -74 -32 -115 -50 -83 -36 -381 -186 -446 -224 -382 -225 -661
-440 -970 -750 -310 -309 -525 -588 -750 -970 -38 -65 -188 -363 -224 -446
-18 -41 -40 -93 -50 -115 -71 -160 -188 -548 -239 -790 -63 -302 -101 -660
-101 -955 0 -295 38 -653 101 -955 51 -242 168 -630 239 -790 10 -22 32 -74
50 -115 36 -83 186 -381 224 -446 225 -382 440 -661 750 -970 309 -310 588
-525 970 -750 65 -38 363 -188 446 -224 41 -18 93 -40 115 -50 84 -37 330
-120 490 -165 284 -80 549 -128 860 -155 552 -49 1114 4 1650 155 160 45 406
128 490 165 22 10 74 32 115 50 83 36 381 186 446 224 382 225 661 440 970
750 310 309 525 588 750 970 38 65 188 363 224 446 18 41 40 93 50 115 71 160
188 548 239 790 63 302 101 660 101 955 0 295 -38 653 -101 955 -51 242 -168
630 -239 790 -10 22 -32 74 -50 115 -36 83 -186 381 -224 446 -225 382 -440
661 -750 970 -309 310 -588 525 -970 750 -65 38 -363 188 -446 224 -41 18 -93
40 -115 50 -84 37 -330 120 -490 165 -538 152 -1115 205 -1670 155z"/>
</g>
</svg>
