<?xml version="1.0" standalone="no"?>
<!DOCTYPE svg PUBLIC "-//W3C//DTD SVG 20010904//EN"
 "http://www.w3.org/TR/2001/REC-SVG-20010904/DTD/svg10.dtd">
<svg version="1.0" xmlns="http://www.w3.org/2000/svg"
 width="939.000000pt" height="645.000000pt" viewBox="0 0 939.000000 645.000000"
 preserveAspectRatio="xMidYMid meet">

<g transform="translate(0.000000,645.000000) scale(0.100000,-0.100000)"
fill="#000000" stroke="none">
<path d="M4567 5953 c-12 -12 -30 -16 -61 -14 -36 2 -47 -1 -56 -18 -9 -18
-17 -20 -54 -15 -36 5 -46 3 -63 -15 -15 -16 -27 -20 -45 -16 -31 8 -78 -10
-78 -29 0 -12 -12 -15 -51 -13 -38 1 -54 -2 -63 -15 -10 -13 -27 -18 -66 -18
-44 0 -53 -3 -57 -20 -5 -18 -11 -20 -53 -14 -42 5 -49 3 -63 -16 -12 -18 -22
-21 -49 -18 -41 7 -78 -6 -78 -28 0 -13 -7 -15 -40 -9 -50 8 -76 0 -83 -26 -5
-17 -10 -19 -29 -13 -38 13 -72 7 -86 -15 -12 -17 -21 -19 -62 -14 -42 5 -49
3 -60 -16 -10 -19 -17 -21 -55 -15 -39 5 -47 3 -67 -19 -19 -20 -28 -23 -47
-15 -30 11 -61 2 -81 -23 -12 -15 -21 -17 -45 -10 -35 10 -73 -2 -82 -24 -4
-13 -14 -15 -44 -10 -46 8 -79 -1 -79 -21 0 -13 -10 -14 -54 -9 -55 7 -80 -5
-57 -28 12 -12 15 -67 4 -67 -5 0 -42 12 -83 25 -90 30 -110 31 -142 5 -19
-14 -34 -18 -60 -13 -27 4 -43 0 -65 -16 -23 -17 -35 -20 -54 -13 -27 10 -46
6 -71 -16 -12 -10 -29 -13 -54 -9 -36 6 -66 -3 -92 -29 -9 -10 -20 -11 -38 -4
-37 15 -52 12 -75 -11 -17 -17 -28 -20 -64 -14 -37 5 -47 3 -65 -15 -17 -17
-28 -20 -68 -14 -40 5 -50 3 -66 -15 -15 -17 -26 -19 -62 -14 -34 4 -49 2 -63
-11 -15 -14 -29 -16 -63 -11 -35 5 -49 3 -68 -13 -20 -16 -35 -19 -71 -15 -34
4 -49 1 -62 -11 -13 -13 -27 -16 -60 -11 -34 5 -48 3 -67 -13 -20 -16 -34 -19
-73 -15 -40 5 -51 2 -71 -16 -19 -18 -27 -20 -53 -11 -31 11 -83 -1 -83 -19 0
-5 -24 -9 -54 -8 -39 1 -59 -3 -73 -16 -16 -13 -30 -16 -67 -11 -40 6 -50 4
-71 -16 -22 -20 -27 -21 -55 -10 -24 10 -33 10 -46 0 -21 -18 -80 -143 -157
-335 -36 -88 -85 -208 -110 -266 -58 -135 -59 -144 -24 -172 l28 -22 -26 -62
c-32 -80 -32 -107 0 -121 14 -6 25 -16 25 -22 0 -6 -11 -38 -25 -72 -30 -74
-31 -95 -6 -103 40 -12 42 -28 11 -102 -17 -39 -28 -78 -24 -86 3 -8 23 -21
45 -30 51 -20 50 -42 -1 -92 -30 -29 -40 -47 -40 -71 0 -28 5 -34 40 -48 l40
-16 0 -71 0 -71 -38 4 c-34 3 -37 1 -40 -24 -3 -23 3 -30 36 -47 67 -34 70
-81 11 -146 -28 -30 -41 -53 -41 -74 -1 -17 1 -32 3 -34 2 -1 21 -10 41 -20
38 -16 38 -17 38 -74 0 -74 -10 -91 -43 -76 -30 14 -37 8 -37 -27 0 -22 8 -30
40 -45 38 -17 40 -20 40 -63 0 -38 -6 -51 -40 -88 -54 -58 -53 -85 2 -116 40
-22 43 -26 46 -70 4 -66 -11 -91 -49 -83 -29 7 -30 6 -27 -25 4 -43 -110 8
1833 -825 209 -90 785 -337 1280 -550 495 -213 926 -396 958 -406 78 -25 96
-24 191 9 45 16 126 44 181 62 55 18 278 92 495 165 217 73 616 208 885 298
795 268 968 327 1420 487 237 83 466 164 510 180 110 39 590 208 645 227 25 8
54 23 65 33 11 9 38 20 60 23 90 14 142 36 179 78 48 53 48 97 -1 118 -32 14
-33 16 -33 77 0 67 9 80 48 75 18 -2 22 2 22 27 0 24 -7 34 -35 51 -30 18 -35
25 -35 59 0 29 9 50 34 83 56 74 56 111 0 129 -32 11 -34 14 -34 58 0 77 8 92
45 92 29 0 33 3 31 26 -1 19 -12 34 -38 51 -53 33 -52 72 2 144 52 70 54 104
5 125 l-36 15 3 67 3 67 30 0 c26 1 30 5 33 32 3 26 -2 34 -32 51 -34 20 -36
24 -36 77 l0 56 33 -3 c29 -3 32 0 35 25 2 16 -10 56 -27 94 -40 84 -40 94 2
91 29 -3 32 -1 30 25 -1 15 -16 59 -34 97 -17 37 -29 73 -25 78 3 5 17 7 31 5
40 -8 40 18 1 113 -20 49 -36 92 -36 96 0 5 15 7 32 6 27 -3 34 1 36 18 4 27
-233 563 -258 585 -25 22 -33 24 -960 294 -485 141 -961 280 -1560 455 -1313
385 -1677 490 -1697 490 -10 0 -26 -8 -36 -17z m-3889 -982 c9 -6 125 -46 257
-90 132 -44 285 -96 340 -116 55 -20 210 -75 345 -122 135 -47 360 -125 500
-173 140 -49 327 -114 415 -145 88 -31 185 -65 215 -75 162 -56 698 -245 980
-347 242 -87 406 -144 465 -162 33 -10 87 -29 120 -41 52 -19 254 -89 353
-122 33 -12 43 -35 19 -44 -12 -4 -56 4 -114 21 -15 5 -23 3 -23 -5 0 -6 9
-14 20 -17 11 -3 20 -9 20 -14 0 -5 8 -9 18 -9 23 -1 56 -26 48 -38 -6 -10
-88 8 -122 26 -11 6 -39 15 -64 22 -72 18 -115 32 -120 39 -7 9 -141 51 -160
51 -9 0 -26 7 -38 16 -13 9 -30 13 -38 10 -8 -3 -28 1 -44 9 -31 16 -120 27
-120 15 0 -16 -64 -20 -86 -5 -13 8 -36 15 -52 15 -21 0 -31 6 -35 20 -5 20
-27 28 -27 10 0 -16 -14 -12 -43 15 l-27 26 0 -26 c0 -29 -24 -34 -50 -10 -9
8 -34 21 -56 28 -27 10 -40 21 -42 36 -3 17 -8 21 -25 16 -16 -5 -18 -4 -8 3
25 17 3 28 -53 26 -50 -2 -56 0 -56 18 0 16 -5 19 -25 16 -14 -3 -23 -1 -22 6
1 6 -5 11 -13 11 -8 0 -14 -6 -12 -13 2 -9 -7 -12 -30 -10 -27 2 -33 7 -31 25
3 26 -7 34 -82 63 -33 13 -74 29 -92 36 -17 8 -38 14 -46 14 -9 0 -19 4 -22
10 -3 5 -25 14 -48 21 -23 6 -52 20 -64 32 -21 19 -24 19 -41 4 -17 -16 -21
-16 -50 -1 -17 8 -34 19 -37 25 -4 5 -17 9 -30 9 -13 0 -27 5 -31 11 -3 6 -17
8 -31 4 -18 -4 -29 -1 -40 12 -8 10 -16 14 -19 8 -15 -34 -21 -37 -60 -26 -22
6 -52 11 -67 11 -23 0 -28 4 -25 22 4 27 28 36 29 11 0 -15 2 -14 12 5 8 18 8
25 -2 32 -8 4 -11 13 -7 18 8 13 -66 49 -117 59 -17 3 -36 9 -42 13 -21 15
-64 20 -107 12 -36 -7 -49 -5 -66 8 -15 13 -18 20 -9 29 14 14 8 14 -31 0 -26
-9 -35 -8 -48 5 -8 9 -22 16 -30 16 -8 0 -23 8 -34 18 -11 9 -28 24 -38 32 -9
8 -35 16 -56 18 -45 3 -56 9 -37 22 19 11 6 40 -18 40 -11 0 -23 5 -26 10 -8
13 -45 13 -45 0 0 -5 11 -12 25 -16 13 -3 29 -12 36 -20 16 -19 -13 -18 -71 2
-25 9 -58 20 -75 24 -59 15 -165 58 -179 73 -8 8 -37 17 -65 21 -28 4 -53 11
-56 16 -3 6 -22 10 -41 10 -20 0 -44 5 -54 10 -12 6 -21 7 -25 1 -3 -6 4 -15
15 -21 31 -16 24 -30 -15 -30 -37 0 -39 3 -25 35 10 25 -14 55 -44 55 -12 0
-49 9 -81 21 -33 12 -85 28 -115 36 -30 8 -65 20 -77 28 -15 10 -24 11 -28 4
-4 -6 -5 -11 -4 -12 2 -1 14 -8 26 -14 13 -7 31 -13 41 -13 10 0 23 -5 28 -10
6 -6 44 -19 85 -31 92 -25 162 -56 154 -69 -9 -15 -32 -12 -68 7 -18 9 -35 16
-40 15 -4 -1 -23 4 -42 12 -20 9 -37 11 -40 5 -4 -5 -12 -9 -18 -9 -8 0 -7 4
2 9 11 7 4 12 -25 20 -21 6 -48 18 -58 26 -11 8 -30 15 -42 15 -13 0 -27 6
-31 13 -12 17 -49 37 -73 37 -12 0 -20 7 -20 16 0 12 -7 14 -30 9 -19 -4 -30
-3 -30 4 0 6 -11 11 -25 11 -14 0 -25 5 -25 10 0 6 7 10 15 10 10 0 14 9 13
26 -2 21 -6 24 -25 19 -16 -4 -23 -1 -23 9 0 8 5 18 10 21 15 9 12 41 -6 56
-14 11 -19 10 -34 -9 -21 -25 -40 -29 -40 -8 0 8 -5 16 -11 18 -8 3 -9 15 -4
36 6 28 10 32 41 32 19 0 42 -4 52 -9z m392 -436 c0 -8 -4 -15 -9 -15 -5 0
-14 7 -21 15 -10 13 -9 15 9 15 12 0 21 -6 21 -15z m117 -35 c4 0 19 -9 33
-20 27 -21 23 -37 -7 -21 -10 5 -39 19 -65 31 -27 12 -48 26 -48 30 0 17 26
16 52 -1 14 -11 30 -19 35 -19z m33 30 c8 -5 11 -12 8 -16 -10 -9 -38 3 -38
16 0 12 10 13 30 0z m198 -19 c3 -8 -1 -12 -9 -9 -7 2 -15 10 -17 17 -3 8 1
12 9 9 7 -2 15 -10 17 -17z m-143 -1 c3 -5 -3 -10 -15 -10 -12 0 -18 5 -15 10
3 6 10 10 15 10 5 0 12 -4 15 -10z m189 -11 c-3 -5 -10 -7 -15 -3 -5 3 -7 10
-3 15 3 5 10 7 15 3 5 -3 7 -10 3 -15z m-114 -29 c0 -5 -4 -10 -10 -10 -5 0
-10 5 -10 10 0 6 5 10 10 10 6 0 10 -4 10 -10z m40 -60 c0 -5 -7 -10 -15 -10
-8 0 -15 5 -15 10 0 6 7 10 15 10 8 0 15 -4 15 -10z m80 -10 c8 -5 11 -12 7
-17 -5 -4 -12 -2 -16 6 -7 10 -10 9 -14 -3 -5 -11 -1 -16 13 -16 10 0 22 5 25
10 3 6 15 10 26 10 14 0 19 -7 19 -25 0 -22 -4 -25 -37 -25 -64 0 -103 61 -43
69 3 0 12 -3 20 -9z m101 -75 c-1 -15 -24 -12 -29 3 -3 9 2 13 12 10 10 -1 17
-7 17 -13z m399 -5 c0 -5 -4 -10 -10 -10 -5 0 -10 5 -10 10 0 6 5 10 10 10 6
0 10 -4 10 -10z m-330 -10 c0 -5 9 -10 20 -10 21 0 27 -15 10 -25 -12 -7 -62
29 -53 39 10 9 23 7 23 -4z m380 -20 c0 -5 -5 -10 -11 -10 -5 0 -7 5 -4 10 3
6 8 10 11 10 2 0 4 -4 4 -10z m30 -21 c0 -6 -4 -7 -10 -4 -5 3 -10 11 -10 16
0 6 5 7 10 4 6 -3 10 -11 10 -16z m37 -15 c-9 -9 -28 6 -21 18 4 6 10 6 17 -1
6 -6 8 -13 4 -17z m58 6 c3 -5 -3 -10 -14 -10 -12 0 -21 5 -21 10 0 6 6 10 14
10 8 0 18 -4 21 -10z m-85 -75 c0 -11 -31 -11 -39 -1 -9 10 -6 12 14 8 14 -2
25 -6 25 -7z m6550 0 c0 -9 -6 -12 -15 -9 -8 4 -15 10 -15 15 0 5 7 9 15 9 8
0 15 -7 15 -15z m-40 -26 c0 -16 5 -20 19 -16 14 3 18 1 14 -10 -4 -9 -14 -12
-28 -9 -12 3 -31 -2 -44 -10 -22 -16 -57 -12 -46 5 3 6 12 8 20 4 10 -3 15 1
15 12 0 12 -6 16 -19 12 -13 -3 -18 -1 -14 9 2 7 19 15 36 17 18 2 35 5 40 5
4 1 7 -8 7 -19z m-280 -40 c16 -30 8 -31 -13 -3 -10 13 -13 24 -8 24 6 0 15
-9 21 -21z m-83 5 c-3 -3 -12 -4 -19 -1 -8 3 -5 6 6 6 11 1 17 -2 13 -5z
m-6652 -75 c34 -16 44 -24 32 -27 -10 -2 -24 1 -31 7 -18 15 -26 3 -16 -25 7
-18 6 -24 -5 -24 -7 0 -15 10 -17 23 -4 23 -8 24 -45 13 -17 -5 -24 -1 -37 25
-9 17 -14 35 -11 39 7 11 74 -5 130 -31z m6522 35 c-3 -3 -12 -4 -19 -1 -8 3
-5 6 6 6 11 1 17 -2 13 -5z m657 -13 c4 -5 3 -130 -1 -278 -6 -255 -7 -266
-22 -233 -19 42 -48 43 -53 3 -4 -33 -28 -44 -28 -13 0 16 -5 21 -22 18 -13
-2 -23 -10 -24 -18 -2 -35 -5 -40 -19 -40 -9 0 -15 9 -15 21 0 29 -33 21 -40
-10 -7 -32 -26 -38 -33 -11 -5 19 -8 20 -27 10 -12 -6 -19 -18 -16 -25 2 -7
-2 -19 -10 -26 -12 -10 -16 -9 -21 9 -3 12 -9 22 -13 22 -20 0 -38 -13 -34
-24 3 -7 -2 -25 -10 -40 -18 -36 -26 -14 -13 39 5 23 7 125 3 235 -3 107 -2
211 2 230 l8 35 169 51 c175 54 210 61 219 45z m-6889 -22 c10 -15 -1 -23 -20
-15 -9 3 -13 10 -10 16 8 13 22 13 30 -1z m639 -6 c4 -5 11 -8 14 -9 21 -3 42
-18 42 -30 0 -9 11 -14 28 -14 32 0 64 -19 45 -27 -8 -3 -11 -14 -7 -29 5 -20
2 -24 -17 -24 -12 0 -30 6 -38 13 -9 8 -36 19 -61 26 -50 14 -90 37 -90 51 0
5 13 5 32 -1 41 -11 38 -12 38 5 0 8 -8 17 -17 20 -15 6 -15 8 -3 16 18 12 24
12 34 3z m5413 -9 c-3 -3 -12 -4 -19 -1 -8 3 -5 6 6 6 11 1 17 -2 13 -5z
m-6242 -27 c16 -13 15 -14 -13 -9 -18 2 -32 8 -32 13 0 13 24 11 45 -4z m175
-17 c13 -8 13 -10 -2 -10 -9 0 -20 5 -23 10 -8 13 5 13 25 0z m5937 4 c-3 -3
-12 -4 -19 -1 -8 3 -5 6 6 6 11 1 17 -2 13 -5z m-64 -21 c-7 -2 -19 -2 -25 0
-7 3 -2 5 12 5 14 0 19 -2 13 -5z m-5879 -26 c11 -8 16 -22 14 -38 l-4 -24
-12 27 c-6 14 -19 31 -29 37 -15 8 -15 10 -2 11 8 0 23 -6 33 -13z m5809 6
c-7 -2 -19 -2 -25 0 -7 3 -2 5 12 5 14 0 19 -2 13 -5z m644 -10 c3 -7 -5 -17
-16 -23 -18 -9 -21 -8 -21 8 0 32 28 43 37 15z m-692 -3 c-3 -5 -16 -10 -28
-9 -20 1 -20 2 3 9 14 4 26 8 28 9 2 1 0 -3 -3 -9z m725 -24 c0 -8 -4 -18 -10
-21 -5 -3 -10 3 -10 14 0 12 5 21 10 21 6 0 10 -6 10 -14z m-5575 -22 l30 -25
-40 6 c-49 8 -72 24 -53 36 21 13 31 11 63 -17z m4768 19 c-7 -2 -19 -2 -25 0
-7 3 -2 5 12 5 14 0 19 -2 13 -5z m-53 -13 c-8 -5 -22 -10 -30 -10 -13 0 -13
1 0 10 8 5 22 10 30 10 13 0 13 -1 0 -10z m294 -68 c11 -18 -19 -15 -34 3 -11
13 -10 21 0 43 l13 27 7 -31 c4 -17 10 -36 14 -42z m115 42 c-13 -14 -25 -20
-27 -14 -5 15 17 40 36 40 12 0 10 -6 -9 -26z m-479 6 c-8 -5 -19 -10 -25 -10
-5 0 -3 5 5 10 8 5 20 10 25 10 6 0 3 -5 -5 -10z m908 -2 c7 -7 12 -23 12 -36
0 -21 -2 -22 -15 -12 -8 7 -21 10 -29 7 -22 -9 -30 25 -10 40 22 16 27 16 42
1z m-5865 -14 c15 -1 34 -2 43 -3 8 0 12 -5 9 -11 -9 -14 8 -12 24 3 11 10 14
10 18 0 3 -7 13 -13 24 -13 26 0 24 -18 -3 -40 l-23 -18 28 -11 c16 -6 41 -11
57 -11 16 0 30 -7 34 -16 4 -10 12 -14 22 -10 23 9 37 -3 23 -20 -8 -10 -8
-14 0 -14 6 0 11 -4 11 -9 0 -5 -21 2 -47 15 -48 24 -83 31 -83 16 0 -5 14
-15 32 -23 35 -15 49 -39 24 -39 -9 0 -16 -4 -16 -10 0 -18 -47 -22 -79 -6
-17 9 -31 12 -31 6 0 -5 -7 -10 -15 -10 -18 0 -20 20 -2 20 6 0 23 9 37 20 23
17 23 19 6 26 -10 4 -21 2 -25 -5 -4 -7 -15 -9 -26 -5 -16 7 -16 8 -1 19 15
11 15 15 1 41 -15 28 -15 28 -21 7 -7 -24 -19 -30 -29 -13 -4 6 -11 7 -17 4
-6 -4 -6 -10 1 -17 18 -18 12 -28 -10 -17 -22 12 -49 7 -49 -9 0 -5 12 -12 28
-17 17 -5 21 -9 11 -11 -8 -2 -28 1 -44 7 -26 10 -27 12 -10 24 20 14 11 24
-26 31 -31 6 -36 15 -17 29 10 7 15 16 11 19 -3 4 6 11 20 16 20 8 25 16 23
41 -2 30 -1 30 28 23 17 -4 43 -8 59 -9z m387 0 c0 -8 -4 -12 -10 -9 -5 3 -10
10 -10 16 0 5 5 9 10 9 6 0 10 -7 10 -16z m102 -14 c21 -10 46 -16 57 -13 12
3 31 -7 52 -27 28 -26 30 -30 12 -25 -12 3 -31 0 -42 -7 -16 -10 -23 -10 -33
0 -6 6 -19 12 -28 12 -9 0 -25 9 -35 20 -10 11 -26 20 -35 20 -20 0 -40 19
-40 38 0 17 34 10 92 -18z m4398 10 c-8 -5 -19 -10 -25 -10 -5 0 -3 5 5 10 8
5 20 10 25 10 6 0 3 -5 -5 -10z m-50 -14 c0 -2 -9 -6 -20 -9 -11 -3 -18 -1
-14 4 5 9 34 13 34 5z m-5000 -27 c0 -18 -20 -18 -29 0 -9 16 -8 18 9 14 11
-3 20 -9 20 -14z m4940 7 c0 -2 -11 -6 -25 -8 -13 -3 -22 -1 -19 3 5 9 44 13
44 5z m-73 -22 c-3 -3 -12 -4 -19 -1 -8 3 -5 6 6 6 11 1 17 -2 13 -5z m-4472
-14 c3 -5 -1 -10 -10 -10 -9 0 -13 5 -10 10 3 6 8 10 10 10 2 0 7 -4 10 -10z
m605 -10 c0 -5 -6 -10 -14 -10 -8 0 -18 5 -21 10 -3 6 3 10 14 10 12 0 21 -4
21 -10z m3803 3 c-7 -2 -19 -2 -25 0 -7 3 -2 5 12 5 14 0 19 -2 13 -5z m672
-9 c14 -9 25 -23 25 -30 0 -19 -10 -18 -25 3 -11 14 -16 15 -28 5 -18 -15 -30
-2 -21 22 8 20 18 20 49 0z m-5001 -9 c3 -8 12 -12 21 -9 9 4 15 0 15 -10 0
-9 6 -13 13 -10 20 7 58 -10 91 -41 15 -14 34 -24 41 -22 7 3 12 -5 12 -24 0
-26 -4 -29 -34 -29 -22 0 -33 -5 -33 -14 0 -10 -13 -14 -52 -13 -32 1 -53 -2
-55 -10 -3 -9 4 -10 29 -2 41 11 38 12 38 -7 0 -9 -6 -14 -12 -11 -7 2 -20 0
-30 -4 -10 -6 -27 -3 -45 6 -15 8 -37 15 -47 15 -20 0 -66 37 -66 52 0 5 9 6
20 3 11 -3 20 -2 20 4 0 5 16 19 35 31 22 13 32 26 28 33 -9 15 -10 77 -2 77
4 0 9 -7 13 -15z m4263 -1 c-3 -3 -12 -4 -19 -1 -8 3 -5 6 6 6 11 1 17 -2 13
-5z m-70 -20 c-3 -3 -12 -4 -19 -1 -8 3 -5 6 6 6 11 1 17 -2 13 -5z m-4647
-14 c0 -5 -8 -10 -17 -10 -15 0 -16 2 -3 10 19 12 20 12 20 0z m885 -1 c11
-17 0 -20 -21 -4 -17 13 -17 14 -2 15 9 0 20 -5 23 -11z m3720 1 c-3 -5 -16
-10 -28 -9 -21 0 -21 1 -2 9 28 12 37 12 30 0z m-95 -31 c-19 -12 -38 -27 -42
-33 -6 -8 -8 -8 -8 1 0 15 48 53 69 53 9 0 0 -9 -19 -21z m708 5 c27 -19 29
-44 2 -44 -12 0 -20 7 -20 17 0 13 -3 14 -12 5 -19 -19 -28 -14 -28 13 0 29
24 33 58 9z m242 1 c20 -24 5 -46 -27 -39 -54 11 -55 12 -41 34 15 24 50 26
68 5z m-5302 -36 c-2 -6 -8 -10 -13 -10 -5 0 -11 4 -13 10 -2 6 4 11 13 11 9
0 15 -5 13 -11z m933 -12 c-8 -8 -16 -7 -27 5 -14 14 -14 15 11 10 19 -3 23
-8 16 -15z m3639 9 c0 -3 -4 -8 -10 -11 -5 -3 -10 -1 -10 4 0 6 5 11 10 11 6
0 10 -2 10 -4z m1155 -5 c3 -6 -4 -15 -15 -21 -17 -9 -20 -8 -20 10 0 20 24
28 35 11z m-4626 -27 c3 -3 -1 -9 -9 -14 -12 -8 -12 -10 4 -10 10 0 25 8 31
17 12 16 15 16 32 2 10 -9 26 -19 36 -22 10 -4 15 -11 12 -17 -4 -7 -12 -7
-25 0 -29 16 -45 13 -30 -5 7 -8 19 -15 26 -15 8 0 14 -5 14 -11 0 -7 -12 -9
-36 -4 -60 11 -84 23 -84 44 0 23 -19 31 -71 31 -42 0 -54 16 -16 22 24 4 107
-9 116 -18z m3507 0 c-32 -28 -43 -26 -26 5 6 12 20 21 33 21 21 -1 21 -2 -7
-26z m1044 -4 c0 -25 -18 -36 -26 -16 -8 21 3 49 16 41 5 -3 10 -15 10 -25z
m-599 1 c20 -16 21 -21 10 -35 -29 -35 -89 -9 -76 34 8 25 36 26 66 1z m-4441
-7 c0 -14 -3 -14 -15 -4 -8 7 -15 14 -15 16 0 2 7 4 15 4 8 0 15 -7 15 -16z
m3508 4 c-7 -19 -38 -22 -38 -4 0 10 9 16 21 16 12 0 19 -5 17 -12z m1442 -18
c0 -10 -9 -24 -21 -30 -24 -13 -24 -13 -33 17 -6 18 -2 22 21 26 15 2 29 5 31
6 1 0 2 -8 2 -19z m-5015 -10 c3 -5 36 -8 73 -6 53 3 77 -1 120 -20 30 -13 59
-24 64 -24 5 0 30 -9 55 -21 25 -11 61 -21 79 -22 21 -1 34 -7 34 -16 0 -19
30 -40 56 -41 12 0 70 -16 130 -36 60 -19 118 -36 129 -36 11 -1 29 -9 40 -19
11 -9 45 -23 75 -30 30 -8 69 -24 88 -37 18 -12 51 -26 74 -31 55 -13 69 -29
41 -48 -23 -16 -21 -45 3 -36 8 3 11 10 8 17 -4 6 2 3 12 -7 15 -14 17 -21 7
-37 -7 -11 -9 -21 -3 -25 5 -3 13 2 18 11 7 12 17 15 36 10 28 -7 36 -26 11
-26 -18 0 -19 -5 -3 -30 22 -34 0 -33 -73 4 -40 20 -80 36 -89 36 -9 0 -25 7
-36 15 -10 8 -28 15 -39 15 -12 0 -25 4 -31 10 -5 5 -15 6 -24 0 -11 -7 -7
-13 19 -27 18 -10 40 -23 49 -30 29 -21 -26 -16 -77 7 -24 11 -48 20 -55 20
-6 0 -31 10 -56 22 -107 51 -136 57 -156 31 -11 -15 -15 -16 -26 -4 -10 10
-10 15 -1 18 8 3 2 13 -16 29 -20 17 -41 24 -69 24 -23 0 -44 5 -47 11 -4 5
-18 14 -31 19 -13 5 -24 14 -24 20 0 13 27 13 35 0 3 -5 12 -7 20 -4 17 7 8
34 -11 34 -8 0 -14 4 -14 8 0 5 26 7 57 4 55 -5 56 -4 40 13 -11 10 -26 15
-38 12 -12 -3 -22 0 -25 8 -3 8 -12 11 -19 9 -21 -8 -30 18 -12 31 21 15 22
25 2 25 -8 0 -15 -7 -15 -15 0 -10 -10 -15 -34 -15 -41 0 -65 23 -46 45 10 12
9 16 -2 20 -8 3 -20 5 -26 3 -6 -2 -17 5 -24 15 -11 14 -30 20 -76 22 -47 3
-81 12 -137 40 -41 20 -75 38 -75 41 0 8 29 4 35 -6z m-50 -30 c3 -5 1 -10 -4
-10 -6 0 -11 5 -11 10 0 6 2 10 4 10 3 0 8 -4 11 -10z m3792 -22 c-3 -8 -6 -5
-6 6 -1 11 2 17 5 13 3 -3 4 -12 1 -19z m1073 -3 c0 -14 -4 -25 -8 -25 -4 0
-9 11 -10 25 -1 14 3 25 8 25 6 0 10 -11 10 -25z m85 7 c-3 -3 -11 0 -18 7 -9
10 -8 11 6 5 10 -3 15 -9 12 -12z m-3865 -12 c0 -5 -2 -10 -4 -10 -3 0 -8 5
-11 10 -3 6 -1 10 4 10 6 0 11 -4 11 -10z m2898 -6 c24 -16 32 -69 10 -61 -7
2 -12 16 -11 31 2 27 1 27 -22 12 -29 -19 -35 -20 -35 -3 0 13 19 37 30 37 3
0 16 -7 28 -16z m822 1 c0 -8 -6 -15 -14 -15 -17 0 -28 14 -19 24 12 12 33 6
33 -9z m-3891 -49 c10 -9 26 -16 37 -16 23 0 51 -17 42 -25 -3 -4 -14 -2 -25
3 -10 5 -44 14 -75 20 -55 10 -108 36 -108 52 0 13 109 -16 129 -34z m2211 -1
c0 -8 -7 -15 -15 -15 -16 0 -20 12 -8 23 11 12 23 8 23 -8z m2658 -60 c-7 -7
-60 -27 -118 -45 -58 -18 -138 -43 -179 -56 -41 -12 -78 -21 -83 -18 -4 3 -8
20 -7 37 0 30 1 31 11 10 9 -18 16 -21 37 -17 14 4 30 11 36 15 5 5 24 9 42 9
18 0 33 5 33 10 0 6 16 10 35 10 19 0 35 4 35 10 0 5 18 13 40 16 22 4 43 11
46 15 3 5 18 9 34 9 28 0 39 13 42 53 0 12 3 7 5 -12 3 -20 -1 -39 -9 -46z
m-2141 33 c-3 -8 -6 -5 -6 6 -1 11 2 17 5 13 3 -3 4 -12 1 -19z m1693 16 c0
-3 -5 -14 -10 -24 -7 -13 -7 -21 2 -26 6 -4 14 -2 16 4 5 15 32 16 32 2 0 -5
-5 -10 -10 -10 -7 0 -8 -14 -4 -37 6 -34 5 -37 -9 -25 -8 7 -21 12 -29 11 -28
-3 -38 2 -38 20 0 11 5 23 11 26 6 4 8 14 5 22 -4 9 -1 22 5 29 11 14 29 19
29 8z m-4240 -24 c22 -11 49 -20 60 -20 29 0 60 -18 60 -34 0 -14 -45 -11 -65
4 -5 4 -29 11 -53 15 -33 5 -42 11 -38 22 4 11 2 13 -9 9 -9 -3 -15 0 -15 9 0
20 13 19 60 -5z m521 -8 c7 -18 5 -22 -11 -22 -15 0 -20 7 -20 26 0 30 19 28
31 -4z m2363 13 c16 -12 17 -17 6 -30 -9 -11 -16 -12 -25 -5 -7 6 -19 8 -28 4
-18 -7 -29 9 -21 30 8 20 43 20 68 1z m-3203 -27 c38 -11 48 -21 30 -33 -5 -3
-16 2 -24 10 -9 8 -22 15 -31 15 -8 0 -18 5 -21 10 -8 13 -1 13 46 -2z m3646
-22 c-2 -6 -14 -12 -26 -14 -20 -3 -21 -1 -12 17 12 21 45 19 38 -3z m498 -6
c-29 -31 -42 -33 -31 -5 4 13 35 31 55 34 3 1 -8 -12 -24 -29z m-4055 -5 c7
-8 19 -15 28 -15 8 0 13 -2 10 -5 -10 -10 -68 8 -68 21 0 18 14 18 30 -1z
m3477 -19 c-4 -9 -11 -16 -17 -16 -11 0 -14 33 -3 44 11 10 26 -11 20 -28z
m-3942 4 c3 -5 -3 -10 -14 -10 -12 0 -21 5 -21 10 0 6 6 10 14 10 8 0 18 -4
21 -10z m1185 6 c0 -2 -7 -6 -15 -10 -8 -3 -15 -1 -15 4 0 6 7 10 15 10 8 0
15 -2 15 -4z m2670 -26 c0 -28 -41 -44 -57 -22 -19 23 -16 30 15 35 15 2 30 5
35 6 4 0 7 -8 7 -19z m-1640 -25 c0 -8 -4 -15 -10 -15 -5 0 -10 7 -10 15 0 8
5 15 10 15 6 0 10 -7 10 -15z m1537 9 c-3 -3 -12 -4 -19 -1 -8 3 -5 6 6 6 11
1 17 -2 13 -5z m-2503 -29 c-4 -8 -7 -15 -9 -15 -2 0 -5 7 -9 15 -3 9 0 15 9
15 9 0 12 -6 9 -15z m2482 -23 c-4 -3 -11 0 -16 8 -15 24 -11 33 6 15 9 -9 13
-19 10 -23z m-86 3 c0 -33 -15 -33 -16 0 -1 14 2 25 7 25 5 0 9 -11 9 -25z
m137 19 c-3 -3 -12 -4 -19 -1 -8 3 -5 6 6 6 11 1 17 -2 13 -5z m633 -24 c11
-11 20 -27 20 -35 0 -22 -28 -18 -40 6 -9 16 -14 18 -26 8 -20 -16 -13 -32 17
-39 37 -9 31 -42 -9 -54 -40 -11 -47 -5 -46 42 2 83 40 116 84 72z m-832 -7
c-2 -10 -10 -18 -18 -18 -8 0 -16 8 -18 18 -2 12 3 17 18 17 15 0 20 -5 18
-17z m1366 5 c-19 -35 -43 -49 -116 -73 -44 -14 -85 -24 -92 -22 -13 5 -7 8
90 36 44 13 81 31 95 46 27 27 34 31 23 13z m-4169 -28 c3 -5 2 -10 -4 -10 -5
0 -13 5 -16 10 -3 6 -2 10 4 10 5 0 13 -4 16 -10z m442 -12 c-3 -8 -6 -5 -6 6
-1 11 2 17 5 13 3 -3 4 -12 1 -19z m1942 -13 c12 -35 35 -46 44 -22 6 16 14 8
19 -18 2 -15 -2 -20 -19 -19 -12 0 -22 -2 -21 -5 2 -21 -6 -29 -41 -39 -21 -7
-41 -12 -45 -12 -10 0 -7 68 4 75 6 3 10 16 10 29 0 21 16 46 30 46 3 0 12
-16 19 -35z m621 5 c0 -5 -4 -10 -10 -10 -5 0 -10 5 -10 10 0 6 5 10 10 10 6
0 10 -4 10 -10z m360 -10 c0 -5 -4 -10 -9 -10 -5 0 -12 -7 -15 -16 -9 -23 20
-65 39 -58 27 11 17 -26 -11 -38 -40 -19 -59 0 -59 58 -1 27 3 55 8 62 11 14
47 16 47 2z m-3376 -15 c11 -8 16 -18 12 -22 -3 -4 -16 3 -28 15 -25 25 -13
29 16 7z m3414 -18 c2 -10 -3 -17 -12 -17 -10 0 -16 9 -16 21 0 24 23 21 28
-4z m532 -17 c-20 -13 -40 -13 -40 0 0 6 12 10 28 10 21 0 24 -2 12 -10z
m-1000 -25 c-24 -26 -40 -32 -40 -16 0 15 30 41 47 41 13 0 12 -5 -7 -25z
m930 5 c-19 -13 -30 -13 -30 0 0 6 10 10 23 10 18 0 19 -2 7 -10z m-60 -20
c-20 -13 -33 -13 -25 0 3 6 14 10 23 10 15 0 15 -2 2 -10z m-60 -20 c-8 -5
-22 -9 -30 -9 -10 0 -8 3 5 9 27 12 43 12 25 0z m-3660 -16 c0 -9 -7 -14 -17
-12 -25 5 -28 28 -4 28 12 0 21 -6 21 -16z m1808 -40 c12 -30 20 -59 17 -64
-7 -11 -95 -41 -96 -32 -4 21 4 61 16 87 7 17 16 38 19 48 9 29 20 19 44 -39z
m907 46 c3 -5 2 -10 -4 -10 -5 0 -13 5 -16 10 -3 6 -2 10 4 10 5 0 13 -4 16
-10z m-188 -22 c-3 -8 -6 -5 -6 6 -1 11 2 17 5 13 3 -3 4 -12 1 -19z m1073 12
c-20 -13 -43 -13 -35 0 3 6 16 10 28 10 18 0 19 -2 7 -10z m-3575 -10 c3 -5 1
-10 -4 -10 -6 0 -11 5 -11 10 0 6 2 10 4 10 3 0 8 -4 11 -10z m2555 0 c0 -5
-5 -10 -11 -10 -5 0 -7 5 -4 10 3 6 8 10 11 10 2 0 4 -4 4 -10z m-2770 -15 c7
-9 9 -19 5 -23 -4 -4 -10 -1 -12 6 -3 6 -11 12 -19 12 -8 0 -14 5 -14 10 0 15
26 12 40 -5z m3725 5 c-49 -22 -248 -81 -258 -77 -7 2 8 10 33 17 25 6 81 25
125 40 44 15 89 28 100 28 l20 1 -20 -9z m1133 -66 c-4 -71 9 -63 -224 -138
-150 -48 -869 -281 -1969 -638 -203 -65 -444 -143 -535 -173 -91 -29 -318
-103 -505 -163 -187 -61 -475 -154 -640 -207 -165 -53 -320 -103 -344 -111
-72 -23 -72 -23 -69 58 l3 72 130 42 c130 42 407 131 840 269 363 116 784 251
980 315 251 81 1002 324 1690 545 319 102 591 190 605 194 36 12 41 2 38 -65z
m-2798 31 c0 -28 -15 -34 -24 -9 -10 25 -7 34 9 34 9 0 15 -9 15 -25z m930 15
c0 -5 -2 -10 -4 -10 -3 0 -8 5 -11 10 -3 6 -1 10 4 10 6 0 11 -4 11 -10z m-79
-10 c44 -24 12 -130 -39 -130 -28 0 -59 37 -44 52 7 7 12 18 12 24 0 7 4 24
10 38 10 28 29 32 61 16z m-2451 -40 c0 -11 -4 -20 -10 -20 -5 0 -10 -7 -10
-15 0 -18 -1 -18 -35 -5 l-27 10 24 25 c28 30 58 33 58 5z m2985 -20 c-3 -5
-13 -10 -21 -10 -9 0 -49 -11 -90 -25 -41 -14 -84 -24 -97 -24 -20 1 -20 2 -2
6 11 2 29 8 40 13 30 12 148 48 163 49 7 1 10 -3 7 -9z m-1962 -60 c9 -16 18
-43 22 -60 6 -26 3 -31 -22 -41 -15 -6 -40 -13 -55 -16 -27 -5 -28 -4 -21 28
3 18 12 45 20 59 7 14 13 33 13 43 0 27 27 20 43 -13z m-1063 -10 c0 -5 -4
-10 -10 -10 -5 0 -10 5 -10 10 0 6 5 10 10 10 6 0 10 -4 10 -10z m1130 -54
c-18 -18 -34 8 -19 35 l12 23 9 -24 c5 -15 5 -27 -2 -34z m1643 47 c-7 -2 -19
-2 -25 0 -7 3 -2 5 12 5 14 0 19 -2 13 -5z m-60 -20 c-7 -2 -19 -2 -25 0 -7 3
-2 5 12 5 14 0 19 -2 13 -5z m-60 -20 c-7 -2 -19 -2 -25 0 -7 3 -2 5 12 5 14
0 19 -2 13 -5z m-48 -11 c-6 -5 -44 -19 -85 -32 -41 -12 -99 -31 -127 -40 -51
-18 -53 -18 -78 2 -14 11 -24 27 -24 36 1 15 2 15 6 1 7 -27 48 -43 80 -31 15
6 69 22 118 37 50 14 95 28 100 30 17 6 19 5 10 -3z m-2065 -81 c0 -9 4 -21 9
-26 5 -6 12 -25 16 -42 6 -29 3 -34 -19 -42 -13 -6 -37 -11 -53 -13 -26 -3
-28 -1 -25 32 2 19 8 39 13 45 5 5 9 17 9 26 0 21 28 51 41 44 5 -4 9 -14 9
-24z m1110 -40 c0 -41 -20 -67 -45 -57 -32 12 -9 96 27 96 14 0 18 -8 18 -39z
m-1032 -8 c-4 -37 -23 -39 -24 -3 -1 20 4 30 13 30 10 0 13 -9 11 -27z m952
-11 c0 -39 -9 -47 -73 -67 -52 -16 -60 -17 -74 -3 -18 19 -10 54 17 68 11 6
38 11 60 13 22 1 42 8 45 15 8 21 25 3 25 -26z m-174 -57 c13 -28 10 -32 -50
-60 -35 -16 -41 -16 -51 -2 -9 13 -14 12 -32 -9 -27 -31 -51 -31 -59 0 -7 31
11 66 36 66 10 0 22 5 25 10 9 15 27 1 21 -16 -5 -14 10 -20 16 -6 3 6 66 40
78 41 3 1 10 -10 16 -24z m-806 -60 c11 -13 11 -23 0 -55 -18 -54 -37 -59 -56
-14 -14 35 -14 38 7 60 26 28 32 29 49 9z m1270 -125 c0 -27 -4 -50 -9 -50
-12 0 -19 44 -13 75 8 43 22 27 22 -25z m149 35 c10 -11 -37 -40 -66 -41 -43
-1 -52 12 -19 28 14 6 26 15 26 21 0 8 49 1 59 -8z m-214 -64 c0 -19 -9 -26
-50 -41 -189 -65 -215 -68 -215 -21 0 28 39 55 65 45 7 -3 16 -1 20 5 3 6 16
11 29 11 12 0 26 4 32 9 11 12 50 19 89 17 24 -1 30 -5 30 -25z m-1315 -20
c26 -49 -13 -141 -60 -141 -50 0 -68 84 -29 134 25 32 73 36 89 7z m1338 -53
c-4 -12 -217 -88 -246 -88 -8 0 -12 6 -10 12 3 7 58 29 124 50 136 42 137 42
132 26z m-1533 -31 c30 -47 -21 -119 -61 -86 -19 15 -12 64 13 91 21 24 29 23
48 -5z m1052 -34 c-1 -26 -6 -47 -12 -48 -11 0 -19 69 -11 92 11 28 25 2 23
-44z m151 42 c2 -2 -2 -12 -9 -23 -10 -16 -21 -19 -53 -17 -55 4 -55 4 -23 21
15 8 27 19 27 25 0 10 48 5 58 -6z m-234 -41 c9 -3 16 -16 16 -29 0 -26 -10
-30 -148 -71 -109 -32 -122 -31 -122 4 0 21 7 32 28 42 15 7 31 12 36 11 5 -1
16 1 25 5 9 4 21 8 26 9 6 0 17 4 25 7 76 28 91 31 114 22z m-669 -64 c0 -39
-29 -65 -45 -40 -14 22 -12 47 6 65 23 23 39 13 39 -25z m715 -43 c0 -7 -27
-20 -62 -30 -35 -9 -93 -26 -129 -37 -78 -24 -79 -24 -79 -5 0 9 32 24 93 43
141 46 177 51 177 29z m-388 -85 c-7 -2 -12 -10 -12 -18 0 -8 -9 -14 -20 -14
-11 0 -20 7 -20 14 0 18 53 46 59 32 2 -6 -1 -12 -7 -14z m48 8 c0 -11 -4 -20
-10 -20 -5 0 -10 9 -10 20 0 11 5 20 10 20 6 0 10 -9 10 -20z m-210 -47 c0 -5
-9 -19 -20 -33 -14 -19 -22 -22 -31 -13 -13 13 -4 33 17 33 8 0 14 5 14 10 0
6 5 10 10 10 6 0 10 -3 10 -7z"/>
<path d="M778 4783 c-24 -6 -23 -23 1 -23 10 0 21 7 25 15 6 15 4 16 -26 8z"/>
<path d="M820 4770 c0 -5 9 -10 19 -10 11 0 21 -8 24 -17 4 -17 4 -17 12 1 5
12 3 21 -6 27 -19 12 -49 11 -49 -1z"/>
<path d="M1710 4496 c41 -25 51 -29 57 -22 11 11 -11 25 -47 32 l-35 6 25 -16z"/>
<path d="M2210 4290 c19 -13 30 -13 30 0 0 6 -10 10 -22 10 -19 0 -20 -2 -8
-10z"/>
<path d="M4188 3673 c7 -3 16 -2 19 1 4 3 -2 6 -13 5 -11 0 -14 -3 -6 -6z"/>
<path d="M4254 3646 c20 -11 33 -13 40 -6 7 7 5 10 -4 10 -8 0 -26 3 -40 6
-23 5 -23 5 4 -10z"/>
<path d="M4322 3625 c12 -11 121 -45 144 -45 5 0 -6 9 -25 21 -39 24 -142 45
-119 24z"/>
<path d="M8667 4010 c-7 -34 -27 -41 -27 -9 0 30 -42 22 -50 -10 -7 -32 -30
-40 -30 -11 0 34 -44 23 -48 -12 -4 -33 -22 -37 -29 -8 -7 28 -36 21 -43 -9
-6 -28 -30 -41 -30 -17 0 23 -20 30 -37 14 -9 -9 -16 -43 -19 -88 l-5 -72 33
5 c59 9 111 25 118 37 4 6 14 8 23 4 10 -3 28 1 42 10 13 9 38 16 55 16 16 0
30 5 30 10 0 6 15 10 34 10 32 0 34 2 40 45 5 28 2 58 -5 80 -16 44 -44 47
-52 5z m-2 -59 c3 -5 1 -12 -5 -16 -5 -3 -10 1 -10 9 0 18 6 21 15 7z m-158
-53 c-3 -8 -6 -5 -6 6 -1 11 2 17 5 13 3 -3 4 -12 1 -19z m-67 -18 c0 -5 -4
-10 -10 -10 -5 0 -10 5 -10 10 0 6 5 10 10 10 6 0 10 -4 10 -10z"/>
<path d="M8632 3828 c-14 -14 -15 -37 -3 -57 15 -23 53 5 49 37 -3 29 -26 40
-46 20z"/>
<path d="M8563 3813 c-18 -7 -17 -73 1 -73 20 0 38 26 34 51 -3 24 -15 31 -35
22z"/>
<path d="M8481 3786 c-19 -23 -10 -61 14 -61 16 0 20 7 20 34 0 38 -15 50 -34
27z"/>
<path d="M8394 3746 c-9 -36 11 -59 38 -45 27 15 21 63 -9 67 -17 3 -24 -3
-29 -22z"/>
<path d="M8624 3656 c-10 -26 1 -51 24 -54 19 -3 22 1 22 32 0 30 -4 36 -20
36 -11 0 -23 -6 -26 -14z"/>
<path d="M8557 3644 c-11 -11 -8 -62 3 -69 18 -11 41 17 38 44 -3 25 -27 39
-41 25z"/>
<path d="M8482 3621 c-22 -13 -11 -66 13 -66 16 0 20 7 20 34 0 36 -11 46 -33
32z"/>
<path d="M8406 3597 c-25 -19 -17 -61 12 -65 19 -3 22 1 22 32 0 41 -10 50
-34 33z"/>
<path d="M2545 3950 c3 -5 8 -10 11 -10 2 0 4 5 4 10 0 6 -5 10 -11 10 -5 0
-7 -4 -4 -10z"/>
<path d="M2500 3752 c0 -5 7 -13 16 -16 10 -4 14 -1 12 6 -5 15 -28 23 -28 10z"/>
<path d="M2546 3682 c-7 -12 22 -38 31 -28 4 3 0 14 -9 22 -9 10 -18 12 -22 6z"/>
<path d="M2746 3721 c10 -10 25 -16 32 -13 15 5 -15 31 -37 32 -11 0 -9 -5 5
-19z"/>
<path d="M2745 3661 c-3 -6 -3 -11 2 -12 4 0 16 -2 26 -4 11 -2 16 2 14 8 -5
16 -33 21 -42 8z"/>
<path d="M2803 3637 c2 -7 14 -14 28 -15 19 -3 22 -1 12 9 -17 17 -45 21 -40
6z"/>
<path d="M2712 3622 c2 -9 13 -18 26 -20 30 -5 28 10 -4 25 -22 10 -25 9 -22
-5z"/>
<path d="M3090 3576 c0 -8 5 -18 10 -21 6 -3 10 1 10 9 0 8 -4 18 -10 21 -5 3
-10 -1 -10 -9z"/>
<path d="M3330 3460 c0 -5 7 -10 15 -10 8 0 15 5 15 10 0 6 -7 10 -15 10 -8 0
-15 -4 -15 -10z"/>
<path d="M3425 3419 c-10 -14 -1 -21 19 -13 9 3 13 10 10 15 -7 12 -21 11 -29
-2z"/>
<path d="M3476 3412 c-3 -6 3 -12 15 -15 12 -3 19 -1 16 6 -5 15 -24 20 -31 9z"/>
<path d="M3570 3370 c0 -5 5 -10 11 -10 5 0 7 5 4 10 -3 6 -8 10 -11 10 -2 0
-4 -4 -4 -10z"/>
<path d="M3638 3363 c0 -5 -2 -15 -2 -23 -1 -9 -10 -14 -24 -13 -29 3 -29 -13
1 -22 27 -9 50 -6 58 6 3 5 17 0 32 -11 17 -14 38 -20 62 -18 56 4 38 26 -30
35 -16 3 -31 9 -33 14 -2 5 -10 9 -17 9 -7 0 -15 7 -19 15 -6 16 -25 21 -28 8z"/>
<path d="M3840 3271 c0 -10 42 -23 49 -15 7 6 -20 24 -36 24 -7 0 -13 -4 -13
-9z"/>
<path d="M3742 3209 c3 -24 33 -48 44 -36 4 4 -5 18 -20 32 -27 25 -27 25 -24
4z"/>
<path d="M3967 3173 c-12 -11 -8 -23 8 -23 8 0 15 7 15 15 0 16 -12 20 -23 8z"/>
<path d="M5970 3019 c0 -5 5 -7 10 -4 6 3 10 8 10 11 0 2 -4 4 -10 4 -5 0 -10
-5 -10 -11z"/>
<path d="M6886 3025 c-21 -21 -20 -32 3 -45 29 -15 31 -13 28 20 -5 39 -11 44
-31 25z"/>
<path d="M6033 2735 c-3 -9 -3 -18 0 -22 10 -10 37 6 37 22 0 20 -29 20 -37 0z"/>
<path d="M5895 2700 c3 -5 8 -10 11 -10 2 0 4 5 4 10 0 6 -5 10 -11 10 -5 0
-7 -4 -4 -10z"/>
<path d="M5860 2670 c0 -5 7 -10 16 -10 8 0 12 5 9 10 -3 6 -10 10 -16 10 -5
0 -9 -4 -9 -10z"/>
<path d="M5655 2630 c-8 -13 4 -32 16 -25 12 8 12 35 0 35 -6 0 -13 -4 -16
-10z"/>
<path d="M4980 2580 c-11 -7 -12 -12 -3 -21 13 -13 33 -4 33 17 0 16 -9 18
-30 4z"/>
<path d="M4676 2315 c-11 -8 -16 -21 -13 -30 9 -21 24 -19 38 6 14 27 -1 42
-25 24z"/>
</g>
</svg>
