<svg id="svg" version="1.1" xmlns="http://www.w3.org/2000/svg" xmlns:xlink="http://www.w3.org/1999/xlink" width="400" height="400" viewBox="0, 0, 400,400"><g id="svgg"><path id="path0" d="M191.200 0.478 C 190.650 0.683,188.850 0.845,187.200 0.840 C 182.715 0.824,179.473 0.995,178.800 1.282 C 177.397 1.882,172.288 2.066,171.948 1.530 C 171.697 1.133,171.611 1.187,171.606 1.742 C 171.601 2.366,171.345 2.460,170.000 2.331 C 169.120 2.248,168.400 2.338,168.400 2.533 C 168.400 2.728,167.770 2.814,167.000 2.724 C 166.230 2.634,165.600 2.704,165.600 2.880 C 165.600 3.416,163.601 3.236,163.588 2.700 C 163.581 2.412,163.409 2.486,163.181 2.876 C 162.942 3.287,162.042 3.653,160.893 3.806 C 159.852 3.946,158.730 4.164,158.400 4.291 C 158.070 4.419,157.485 4.484,157.100 4.436 C 156.715 4.389,156.400 4.552,156.400 4.800 C 156.400 5.048,156.085 5.211,155.700 5.164 C 155.315 5.116,154.685 5.214,154.300 5.381 C 153.915 5.549,153.330 5.582,153.000 5.455 C 152.670 5.329,152.400 5.420,152.400 5.659 C 152.400 5.898,152.040 5.999,151.600 5.884 C 151.160 5.769,150.800 5.859,150.800 6.084 C 150.800 6.309,150.350 6.407,149.800 6.302 C 149.250 6.197,148.800 6.266,148.800 6.455 C 148.800 6.990,147.691 6.861,147.465 6.300 C 147.336 5.979,147.252 6.032,147.232 6.446 C 147.209 6.909,146.380 7.289,144.300 7.790 C 142.705 8.174,141.175 8.671,140.900 8.893 C 140.555 9.173,140.191 9.128,139.723 8.749 C 139.261 8.374,139.142 8.359,139.347 8.701 C 139.667 9.233,137.817 10.181,137.201 9.800 C 137.018 9.687,136.808 9.744,136.734 9.926 C 136.660 10.109,134.980 10.764,133.000 11.383 C 131.020 12.002,129.203 12.663,128.963 12.851 C 128.723 13.039,128.408 13.075,128.263 12.930 C 128.118 12.785,128.000 12.896,128.000 13.176 C 128.000 13.456,127.742 13.586,127.426 13.465 C 127.110 13.344,126.795 13.376,126.726 13.536 C 126.657 13.697,124.980 14.444,123.000 15.196 C 121.020 15.948,119.268 16.752,119.106 16.982 C 118.944 17.212,118.809 17.252,118.806 17.071 C 118.803 16.891,118.517 17.026,118.171 17.371 C 117.826 17.717,117.279 18.000,116.955 18.000 C 116.632 18.000,115.649 18.367,114.770 18.815 C 113.892 19.263,112.971 19.506,112.724 19.353 C 112.452 19.185,112.388 19.257,112.562 19.538 C 112.729 19.808,112.600 20.000,112.252 20.000 C 111.925 20.000,111.419 20.228,111.129 20.507 C 110.838 20.786,108.980 21.800,107.000 22.762 C 105.020 23.723,103.304 24.658,103.186 24.839 C 102.851 25.355,100.131 26.397,99.851 26.117 C 99.713 25.980,99.600 26.059,99.600 26.294 C 99.600 26.694,96.783 28.585,96.445 28.411 C 96.359 28.368,96.179 28.507,96.045 28.722 C 95.910 28.937,94.630 29.792,93.200 30.624 C 91.770 31.455,90.015 32.576,89.300 33.115 C 88.585 33.654,87.997 33.939,87.994 33.747 C 87.991 33.556,87.856 33.603,87.694 33.852 C 87.353 34.376,83.600 37.280,83.600 37.020 C 83.600 36.924,83.019 37.376,82.308 38.025 C 81.597 38.674,80.858 39.153,80.664 39.088 C 80.471 39.024,79.567 39.660,78.656 40.503 C 77.745 41.346,74.750 43.864,72.000 46.098 C 66.666 50.432,55.241 61.445,50.938 66.400 C 49.505 68.050,47.892 69.886,47.353 70.479 C 46.205 71.741,43.868 74.597,42.886 75.936 C 42.509 76.450,41.474 77.646,40.586 78.593 C 39.698 79.540,39.024 80.473,39.089 80.666 C 39.153 80.858,38.674 81.597,38.025 82.308 C 37.376 83.019,36.922 83.600,37.016 83.600 C 37.111 83.600,36.469 84.545,35.590 85.700 C 34.711 86.855,33.770 88.295,33.498 88.900 C 33.227 89.505,32.877 90.000,32.722 90.000 C 32.566 90.000,31.782 91.176,30.978 92.613 C 30.174 94.051,29.252 95.491,28.930 95.813 C 28.607 96.136,28.474 96.400,28.633 96.400 C 28.793 96.400,28.639 96.715,28.291 97.100 C 27.943 97.485,27.080 98.970,26.374 100.400 C 25.668 101.830,24.960 103.090,24.800 103.200 C 24.640 103.310,23.725 105.020,22.766 107.000 C 21.807 108.980,20.837 110.732,20.611 110.894 C 20.346 111.083,20.342 111.192,20.600 111.200 C 20.867 111.208,20.867 111.310,20.600 111.506 C 20.166 111.825,18.190 116.043,17.793 117.498 C 17.658 117.991,17.319 118.624,17.040 118.903 C 16.760 119.183,15.925 121.029,15.184 123.006 C 14.443 124.983,13.704 126.657,13.541 126.726 C 13.378 126.795,13.344 127.110,13.465 127.426 C 13.586 127.742,13.456 128.000,13.176 128.000 C 12.896 128.000,12.785 128.118,12.930 128.263 C 13.075 128.408,13.036 128.723,12.844 128.963 C 12.652 129.203,11.987 131.020,11.366 133.000 C 10.745 134.980,10.104 136.657,9.941 136.726 C 9.778 136.795,9.744 137.110,9.865 137.426 C 9.986 137.742,9.892 138.000,9.655 138.000 C 9.419 138.000,9.322 138.252,9.440 138.560 C 9.558 138.867,9.470 139.233,9.245 139.372 C 9.019 139.512,8.929 139.872,9.045 140.172 C 9.160 140.473,9.074 140.831,8.853 140.967 C 8.632 141.104,8.152 142.562,7.785 144.208 C 7.293 146.421,6.948 147.208,6.460 147.232 C 6.045 147.251,5.985 147.338,6.300 147.465 C 6.835 147.681,7.002 148.799,6.500 148.802 C 6.335 148.803,6.156 149.568,6.102 150.501 C 6.048 151.435,5.849 152.250,5.660 152.313 C 5.471 152.376,5.401 152.872,5.505 153.414 C 5.608 153.956,5.517 154.400,5.302 154.400 C 5.087 154.400,4.997 154.850,5.102 155.400 C 5.219 156.009,5.109 156.400,4.821 156.400 C 4.562 156.400,4.389 156.715,4.436 157.100 C 4.484 157.485,4.419 158.070,4.291 158.400 C 4.164 158.730,3.945 159.855,3.805 160.900 C 3.665 161.945,3.393 162.800,3.201 162.800 C 3.008 162.800,2.953 163.430,3.077 164.200 C 3.202 164.970,3.137 165.600,2.933 165.600 C 2.728 165.600,2.634 166.230,2.724 167.000 C 2.814 167.770,2.728 168.400,2.533 168.400 C 2.338 168.400,2.248 169.120,2.331 170.000 C 2.460 171.345,2.366 171.601,1.742 171.606 C 1.187 171.611,1.133 171.697,1.530 171.948 C 2.066 172.288,1.882 177.397,1.282 178.800 C 0.994 179.474,0.823 182.725,0.841 187.206 C 0.847 188.859,0.673 190.681,0.455 191.255 C 0.190 191.952,0.193 192.433,0.464 192.704 C 0.738 192.978,0.729 193.197,0.435 193.378 C -0.122 193.722,-0.162 203.853,0.392 204.195 C 0.622 204.337,0.731 206.253,0.657 208.835 C 0.584 211.368,0.694 213.334,0.916 213.471 C 1.130 213.604,1.204 214.641,1.084 215.808 C 0.965 216.963,1.004 218.063,1.171 218.254 C 1.593 218.734,2.460 227.779,2.159 228.562 C 2.018 228.931,2.120 229.200,2.403 229.200 C 2.718 229.200,2.828 229.626,2.715 230.400 C 2.618 231.060,2.707 231.600,2.913 231.600 C 3.119 231.600,3.214 232.230,3.124 233.000 C 3.034 233.770,3.127 234.400,3.330 234.400 C 3.534 234.400,3.592 234.940,3.460 235.600 C 3.325 236.277,3.390 236.800,3.610 236.800 C 3.825 236.800,4.000 237.239,4.000 237.776 C 4.000 238.313,4.172 238.859,4.383 238.989 C 4.593 239.119,4.663 239.492,4.538 239.818 C 4.413 240.144,4.526 240.669,4.788 240.986 C 5.051 241.303,5.149 241.930,5.006 242.381 C 4.845 242.889,4.924 243.200,5.216 243.200 C 5.518 243.200,5.597 243.558,5.436 244.200 C 5.278 244.827,5.354 245.200,5.639 245.200 C 5.896 245.200,6.003 245.547,5.884 246.000 C 5.769 246.440,5.838 246.800,6.037 246.800 C 6.600 246.800,6.465 247.998,5.900 248.013 C 5.583 248.021,5.645 248.212,6.069 248.534 C 6.436 248.814,7.029 250.203,7.386 251.621 C 7.742 253.040,8.145 254.470,8.280 254.800 C 8.416 255.130,8.492 255.554,8.449 255.742 C 8.407 255.930,8.574 256.327,8.820 256.625 C 9.067 256.922,9.162 257.337,9.032 257.548 C 8.902 257.759,8.935 257.992,9.106 258.066 C 9.276 258.140,10.121 260.450,10.983 263.200 C 11.844 265.950,12.670 268.290,12.817 268.400 C 12.965 268.510,13.672 270.220,14.388 272.200 C 15.703 275.836,18.224 281.512,20.365 285.655 C 21.251 287.370,21.418 288.022,21.065 288.379 C 20.711 288.736,20.748 288.791,21.220 288.612 C 21.876 288.362,23.413 290.931,23.004 291.593 C 22.889 291.779,22.932 291.992,23.099 292.066 C 23.550 292.265,26.599 297.113,27.648 299.300 C 28.149 300.345,28.704 301.200,28.880 301.200 C 29.056 301.200,29.200 301.389,29.200 301.621 C 29.200 301.853,30.235 303.584,31.500 305.469 C 32.765 307.354,34.520 310.035,35.400 311.426 C 37.461 314.685,43.256 322.265,45.700 324.899 C 46.745 326.026,47.600 327.107,47.600 327.302 C 47.600 327.989,64.590 345.246,67.584 347.600 C 68.564 348.370,70.077 349.675,70.948 350.500 C 71.818 351.325,72.595 352.000,72.674 352.000 C 72.961 352.000,78.230 356.200,79.303 357.285 C 79.910 357.898,80.514 358.400,80.646 358.400 C 80.777 358.400,81.541 358.915,82.342 359.545 C 83.144 360.175,84.408 361.002,85.152 361.382 C 85.895 361.763,86.885 362.427,87.352 362.857 C 88.425 363.848,95.190 368.150,97.700 369.439 C 98.745 369.975,99.600 370.620,99.600 370.873 C 99.600 371.126,99.703 371.230,99.829 371.105 C 99.955 370.979,101.142 371.489,102.467 372.238 C 103.792 372.987,105.027 373.600,105.210 373.600 C 105.393 373.600,105.781 373.826,106.071 374.101 C 106.362 374.377,107.590 375.084,108.800 375.672 C 114.606 378.495,120.040 380.968,122.368 381.847 C 123.781 382.380,125.131 382.971,125.368 383.160 C 125.606 383.350,127.870 384.186,130.400 385.018 C 132.930 385.850,135.125 386.722,135.278 386.954 C 135.431 387.187,135.685 387.249,135.841 387.092 C 135.998 386.935,136.323 386.965,136.563 387.158 C 136.803 387.352,138.800 388.013,141.000 388.628 C 143.200 389.242,145.090 389.848,145.200 389.973 C 145.310 390.098,145.760 390.200,146.200 390.200 C 146.682 390.200,146.951 390.426,146.877 390.768 C 146.775 391.243,146.859 391.249,147.394 390.805 C 147.852 390.425,148.157 390.397,148.466 390.706 C 148.703 390.943,149.127 391.049,149.408 390.941 C 149.689 390.834,150.038 390.938,150.183 391.173 C 150.328 391.408,150.897 391.600,151.447 391.600 C 152.101 391.600,152.348 391.760,152.162 392.062 C 151.977 392.360,152.053 392.414,152.376 392.215 C 152.987 391.838,160.000 393.211,160.000 393.708 C 160.000 393.904,160.540 393.945,161.200 393.800 C 161.919 393.642,162.400 393.699,162.400 393.943 C 162.400 394.184,162.969 394.257,163.800 394.123 C 164.720 393.973,165.200 394.053,165.200 394.355 C 165.200 394.643,165.565 394.724,166.177 394.570 C 166.715 394.435,167.390 394.471,167.677 394.650 C 167.965 394.829,168.830 395.016,169.600 395.065 C 172.013 395.221,174.402 395.673,174.235 395.942 C 174.147 396.084,174.958 396.138,176.038 396.061 C 177.327 395.970,178.000 396.080,178.000 396.381 C 178.000 396.705,178.705 396.760,180.400 396.568 C 182.020 396.385,182.800 396.437,182.800 396.729 C 182.800 397.023,183.880 397.085,186.188 396.922 C 188.335 396.770,189.764 396.838,190.088 397.106 C 190.718 397.626,193.930 397.816,194.941 397.393 C 195.349 397.222,198.260 397.204,201.411 397.353 C 205.196 397.532,207.224 397.484,207.393 397.212 C 207.699 396.716,212.400 396.653,212.400 397.145 C 212.400 397.334,212.850 397.403,213.400 397.298 C 213.950 397.193,214.400 396.948,214.400 396.753 C 214.400 396.559,215.221 396.400,216.224 396.400 C 217.227 396.400,217.946 396.563,217.823 396.763 C 217.700 396.962,217.959 397.031,218.399 396.916 C 218.840 396.801,219.200 396.564,219.200 396.389 C 219.200 396.215,220.775 395.944,222.700 395.788 C 224.625 395.632,226.424 395.325,226.698 395.105 C 226.971 394.886,227.651 394.793,228.207 394.899 C 228.764 395.006,229.325 394.921,229.455 394.710 C 229.585 394.500,230.301 394.442,231.046 394.582 C 231.958 394.753,232.400 394.683,232.400 394.368 C 232.400 394.063,232.812 393.982,233.584 394.137 C 234.243 394.269,234.884 394.188,235.028 393.954 C 235.171 393.724,235.718 393.643,236.244 393.775 C 236.814 393.918,237.200 393.839,237.200 393.579 C 237.200 393.339,237.605 393.182,238.100 393.231 C 238.595 393.279,239.315 393.183,239.700 393.017 C 240.085 392.850,240.658 392.814,240.974 392.935 C 241.290 393.056,241.605 392.987,241.674 392.782 C 241.743 392.577,242.880 392.219,244.200 391.986 C 245.520 391.754,246.870 391.453,247.200 391.319 C 247.530 391.184,248.025 391.110,248.300 391.154 C 248.575 391.199,248.800 391.026,248.800 390.771 C 248.800 390.504,249.139 390.395,249.600 390.516 C 250.040 390.631,250.400 390.542,250.400 390.319 C 250.400 390.086,250.825 390.020,251.400 390.164 C 251.950 390.302,252.400 390.259,252.400 390.068 C 252.400 389.877,253.975 389.309,255.900 388.804 C 257.825 388.300,259.850 387.703,260.400 387.477 C 260.950 387.252,261.490 387.036,261.600 386.999 C 261.710 386.962,262.070 386.812,262.400 386.668 C 264.375 385.801,270.159 384.051,270.451 384.232 C 270.643 384.350,270.800 384.257,270.800 384.024 C 270.800 383.791,271.070 383.600,271.400 383.600 C 271.730 383.600,272.000 383.409,272.000 383.176 C 272.000 382.943,272.180 382.864,272.400 383.000 C 272.620 383.136,272.800 383.087,272.800 382.891 C 272.800 382.454,275.601 381.554,276.066 381.841 C 276.250 381.954,276.400 381.870,276.400 381.652 C 276.400 381.435,277.345 380.902,278.500 380.469 C 281.199 379.455,296.518 371.656,296.843 371.130 C 296.979 370.911,297.159 370.782,297.245 370.843 C 297.458 370.996,303.160 367.588,303.435 367.144 C 303.556 366.947,303.823 366.891,304.028 367.017 C 304.232 367.144,304.400 367.060,304.400 366.832 C 304.400 366.313,307.410 364.743,307.750 365.084 C 307.888 365.221,308.000 365.132,308.000 364.886 C 308.000 364.494,310.977 362.235,317.503 357.674 C 320.125 355.841,321.800 354.508,324.171 352.368 C 325.287 351.360,326.641 350.238,327.179 349.875 C 327.718 349.511,329.832 347.669,331.877 345.781 C 334.105 343.724,335.780 342.464,336.059 342.636 C 336.354 342.819,336.415 342.749,336.227 342.444 C 335.839 341.816,341.839 335.853,342.469 336.242 C 342.752 336.418,342.813 336.345,342.631 336.050 C 342.452 335.761,343.525 334.315,345.395 332.327 C 347.077 330.540,348.929 328.430,349.512 327.639 C 350.525 326.263,352.627 323.739,354.541 321.600 C 355.034 321.050,356.022 319.745,356.737 318.700 C 357.453 317.655,358.220 316.800,358.443 316.800 C 358.665 316.800,358.744 316.632,358.617 316.428 C 358.491 316.223,358.559 315.949,358.770 315.819 C 358.981 315.688,360.342 313.876,361.796 311.791 C 363.250 309.706,364.640 308.000,364.886 308.000 C 365.132 308.000,365.221 307.888,365.084 307.750 C 364.752 307.419,366.306 304.400,366.808 304.400 C 367.024 304.400,367.161 304.265,367.114 304.100 C 367.067 303.935,367.485 303.080,368.044 302.200 C 368.603 301.320,369.406 299.970,369.830 299.200 C 370.253 298.430,370.712 297.710,370.848 297.600 C 370.985 297.490,371.683 296.230,372.400 294.800 C 373.117 293.370,373.875 292.090,374.086 291.955 C 374.296 291.821,374.455 291.597,374.438 291.457 C 374.421 291.318,375.828 288.278,377.564 284.702 C 379.300 281.126,380.841 277.795,380.987 277.300 C 381.134 276.805,381.432 276.400,381.651 276.400 C 381.869 276.400,381.954 276.250,381.841 276.066 C 381.554 275.601,382.454 272.800,382.891 272.800 C 383.087 272.800,383.136 272.620,383.000 272.400 C 382.864 272.180,382.943 272.000,383.176 272.000 C 383.409 272.000,383.600 271.730,383.600 271.400 C 383.600 271.070,383.791 270.800,384.024 270.800 C 384.257 270.800,384.350 270.643,384.232 270.451 C 384.012 270.096,385.951 263.980,386.974 261.800 C 387.284 261.140,388.031 258.755,388.634 256.500 C 389.237 254.245,389.885 252.400,390.073 252.400 C 390.261 252.400,390.302 251.950,390.164 251.400 C 390.020 250.825,390.086 250.400,390.319 250.400 C 390.542 250.400,390.631 250.040,390.516 249.600 C 390.401 249.160,390.497 248.800,390.728 248.800 C 390.960 248.800,391.152 248.485,391.153 248.100 C 391.158 246.919,392.497 241.808,392.836 241.674 C 393.011 241.605,393.056 241.290,392.935 240.974 C 392.814 240.658,392.850 240.085,393.017 239.700 C 393.183 239.315,393.279 238.595,393.231 238.100 C 393.182 237.605,393.331 237.200,393.561 237.200 C 393.813 237.200,393.884 236.722,393.740 236.000 C 393.590 235.248,393.664 234.800,393.940 234.800 C 394.216 234.800,394.290 234.352,394.140 233.600 C 393.980 232.798,394.060 232.400,394.382 232.400 C 394.710 232.400,394.779 232.013,394.596 231.184 C 394.449 230.515,394.509 229.750,394.729 229.484 C 394.949 229.218,395.141 228.550,395.155 228.000 C 395.216 225.642,396.125 219.200,396.396 219.200 C 396.560 219.200,396.603 217.940,396.493 216.400 C 396.366 214.634,396.443 213.600,396.700 213.600 C 396.957 213.600,397.031 212.638,396.900 211.006 C 396.765 209.330,396.856 208.214,397.157 207.852 C 397.493 207.447,397.547 205.620,397.352 201.289 C 397.203 197.988,397.222 194.953,397.394 194.544 C 397.814 193.546,397.631 190.726,397.105 190.088 C 396.838 189.765,396.771 188.331,396.922 186.188 C 397.086 183.857,397.025 182.800,396.724 182.800 C 396.428 182.800,396.367 182.030,396.534 180.430 C 396.684 178.990,396.626 178.009,396.384 177.928 C 396.165 177.855,395.945 176.241,395.893 174.342 C 395.842 172.442,395.678 170.960,395.529 171.050 C 395.116 171.296,394.748 169.802,395.036 169.051 C 395.175 168.687,395.069 168.124,394.800 167.800 C 394.521 167.463,394.419 166.779,394.563 166.205 C 394.723 165.568,394.647 165.200,394.355 165.200 C 394.053 165.200,393.973 164.720,394.123 163.800 C 394.261 162.948,394.186 162.400,393.931 162.400 C 393.679 162.400,393.619 161.980,393.780 161.338 C 393.928 160.748,393.866 160.164,393.640 160.025 C 393.417 159.887,393.181 158.970,393.117 157.987 C 393.053 157.004,392.843 156.086,392.652 155.947 C 392.461 155.808,392.281 154.881,392.252 153.888 C 392.223 152.895,392.065 152.165,391.900 152.265 C 391.735 152.365,391.600 151.997,391.600 151.447 C 391.600 150.897,391.437 150.346,391.238 150.223 C 391.038 150.100,390.969 149.639,391.084 149.200 C 391.209 148.722,391.096 148.400,390.804 148.400 C 390.535 148.400,390.416 148.136,390.540 147.813 C 390.664 147.490,390.577 147.110,390.348 146.968 C 390.118 146.826,390.019 146.370,390.128 145.955 C 390.236 145.540,390.162 145.200,389.963 145.200 C 389.414 145.200,389.528 144.096,390.100 143.865 C 390.422 143.735,390.371 143.652,389.957 143.632 C 389.496 143.609,389.054 142.635,388.396 140.186 C 387.892 138.309,387.323 136.676,387.133 136.559 C 386.943 136.441,386.903 136.157,387.045 135.928 C 387.186 135.698,387.137 135.396,386.934 135.255 C 386.731 135.115,385.872 132.930,385.024 130.400 C 384.176 127.870,383.264 125.440,382.998 125.000 C 382.731 124.560,381.819 122.400,380.970 120.200 C 380.122 118.000,379.232 116.020,378.993 115.800 C 378.755 115.580,378.138 114.345,377.623 113.056 C 377.109 111.768,376.271 109.968,375.761 109.056 C 375.252 108.145,374.089 105.960,373.177 104.200 C 372.265 102.440,371.359 100.803,371.163 100.563 C 370.967 100.323,370.925 100.008,371.070 99.863 C 371.215 99.718,371.126 99.600,370.873 99.600 C 370.620 99.600,369.980 98.745,369.449 97.700 C 367.940 94.725,363.271 87.471,362.393 86.736 C 361.957 86.371,361.600 85.825,361.600 85.524 C 361.600 84.791,352.725 73.396,349.094 69.469 C 347.502 67.747,346.130 66.127,346.044 65.869 C 345.808 65.162,332.263 51.606,331.788 51.603 C 331.562 51.601,330.445 50.610,329.306 49.400 C 328.167 48.190,326.957 47.200,326.618 47.200 C 326.278 47.200,326.000 47.036,326.000 46.836 C 326.000 46.636,324.605 45.379,322.900 44.044 C 321.195 42.708,319.530 41.368,319.200 41.065 C 317.940 39.909,310.940 34.887,309.700 34.248 C 308.985 33.880,308.400 33.404,308.400 33.190 C 308.400 32.975,308.215 32.800,307.988 32.800 C 307.762 32.800,305.774 31.630,303.570 30.200 C 301.366 28.770,299.456 27.600,299.324 27.600 C 298.895 27.600,292.204 23.483,292.066 23.134 C 291.992 22.948,291.772 22.893,291.578 23.014 C 291.189 23.254,288.746 22.114,288.355 21.510 C 288.221 21.302,287.951 21.132,287.755 21.133 C 287.425 21.134,285.924 20.456,278.600 17.001 C 277.060 16.274,274.180 15.096,272.200 14.383 C 270.220 13.670,268.485 12.908,268.345 12.692 C 268.204 12.475,267.921 12.401,267.716 12.528 C 267.511 12.655,266.863 12.510,266.277 12.206 C 265.691 11.902,263.634 11.148,261.706 10.530 C 259.778 9.912,258.075 9.230,257.922 9.015 C 257.769 8.799,257.515 8.751,257.359 8.908 C 257.202 9.065,256.851 9.008,256.579 8.782 C 256.307 8.557,255.930 8.407,255.742 8.449 C 255.554 8.492,255.130 8.419,254.800 8.287 C 254.470 8.154,253.037 7.760,251.615 7.410 C 250.194 7.060,248.909 6.576,248.760 6.335 C 248.611 6.095,248.308 6.010,248.086 6.147 C 247.420 6.558,245.200 5.942,245.200 5.347 C 245.200 4.892,245.055 4.883,244.388 5.297 C 243.733 5.703,243.514 5.701,243.256 5.286 C 243.078 5.001,242.637 4.888,242.263 5.031 C 241.893 5.173,241.345 5.086,241.046 4.838 C 240.746 4.589,240.227 4.492,239.891 4.620 C 239.556 4.749,239.162 4.662,239.017 4.427 C 238.872 4.192,238.313 4.000,237.776 4.000 C 237.239 4.000,236.800 3.825,236.800 3.610 C 236.800 3.390,236.277 3.325,235.600 3.460 C 234.939 3.592,234.400 3.529,234.400 3.319 C 234.400 3.110,233.860 3.018,233.200 3.115 C 232.516 3.215,232.000 3.110,232.000 2.871 C 232.000 2.614,231.456 2.539,230.600 2.677 C 229.632 2.835,229.200 2.752,229.200 2.410 C 229.200 2.121,228.934 2.016,228.562 2.159 C 227.809 2.448,218.691 1.573,218.400 1.184 C 218.290 1.037,217.210 0.904,216.000 0.890 C 214.790 0.876,211.689 0.838,209.108 0.807 C 206.520 0.775,204.306 0.572,204.172 0.355 C 203.864 -0.144,192.583 -0.036,191.200 0.478 " stroke="none" fill="#fc1b14" fill-rule="evenodd"></path><path id="path1" d="M186.300 0.282 C 186.795 0.378,187.605 0.378,188.100 0.282 C 188.595 0.187,188.190 0.109,187.200 0.109 C 186.210 0.109,185.805 0.187,186.300 0.282 M209.305 0.287 C 209.914 0.379,210.814 0.377,211.305 0.282 C 211.797 0.187,211.300 0.111,210.200 0.114 C 209.100 0.117,208.697 0.195,209.305 0.287 M180.705 0.683 C 181.202 0.779,181.922 0.775,182.305 0.675 C 182.687 0.575,182.280 0.496,181.400 0.501 C 180.520 0.505,180.207 0.587,180.705 0.683 M215.505 0.683 C 216.002 0.779,216.722 0.775,217.105 0.675 C 217.487 0.575,217.080 0.496,216.200 0.501 C 215.320 0.505,215.007 0.587,215.505 0.683 M175.505 1.083 C 176.002 1.179,176.722 1.175,177.105 1.075 C 177.487 0.975,177.080 0.896,176.200 0.901 C 175.320 0.905,175.007 0.987,175.505 1.083 M219.900 1.082 C 220.395 1.178,221.205 1.178,221.700 1.082 C 222.195 0.987,221.790 0.909,220.800 0.909 C 219.810 0.909,219.405 0.987,219.900 1.082 M237.600 3.600 C 237.600 3.820,237.870 4.000,238.200 4.000 C 238.530 4.000,238.800 3.820,238.800 3.600 C 238.800 3.380,238.530 3.200,238.200 3.200 C 237.870 3.200,237.600 3.380,237.600 3.600 M239.600 4.000 C 239.600 4.220,239.971 4.400,240.424 4.400 C 240.877 4.400,241.136 4.220,241.000 4.000 C 240.864 3.780,240.493 3.600,240.176 3.600 C 239.859 3.600,239.600 3.780,239.600 4.000 M255.200 8.000 C 255.200 8.220,255.470 8.400,255.800 8.400 C 256.130 8.400,256.400 8.220,256.400 8.000 C 256.400 7.780,256.130 7.600,255.800 7.600 C 255.470 7.600,255.200 7.780,255.200 8.000 M109.870 20.279 C 108.471 21.014,108.704 21.409,110.148 20.751 C 110.908 20.404,111.828 19.334,111.100 19.642 C 111.045 19.666,110.491 19.952,109.870 20.279 M101.900 24.629 C 100.405 25.440,100.496 25.778,102.000 25.000 C 102.660 24.659,103.200 24.294,103.200 24.190 C 103.200 23.932,103.157 23.947,101.900 24.629 M95.689 28.062 C 94.980 28.511,94.400 28.934,94.400 29.002 C 94.400 29.266,95.839 28.720,96.571 28.179 C 97.810 27.262,97.102 27.168,95.689 28.062 M306.400 31.305 C 306.950 31.850,307.463 32.241,307.540 32.175 C 307.809 31.942,307.149 31.201,306.278 30.759 C 305.476 30.352,305.486 30.399,306.400 31.305 M89.600 31.841 C 89.600 32.046,89.105 32.522,88.500 32.897 C 87.895 33.272,87.580 33.579,87.800 33.580 C 88.471 33.583,90.208 32.074,89.894 31.761 C 89.732 31.599,89.600 31.635,89.600 31.841 M312.800 35.557 C 312.800 35.750,313.250 36.203,313.800 36.563 C 314.350 36.924,314.800 37.157,314.800 37.081 C 314.800 37.006,314.350 36.553,313.800 36.075 C 313.250 35.597,312.800 35.363,312.800 35.557 M67.600 48.700 L 66.200 50.128 67.488 49.245 C 68.778 48.361,69.402 47.667,69.140 47.409 C 69.063 47.333,68.370 47.914,67.600 48.700 M62.153 53.760 C 60.926 54.948,59.810 55.925,59.671 55.930 C 59.357 55.942,59.050 56.800,59.359 56.800 C 59.484 56.800,60.755 55.630,62.185 54.200 C 63.615 52.770,64.695 51.600,64.584 51.600 C 64.473 51.600,63.379 52.572,62.153 53.760 M332.800 51.725 C 332.800 51.794,333.373 52.379,334.074 53.025 L 335.349 54.200 334.374 52.922 C 333.547 51.837,332.800 51.269,332.800 51.725 M55.969 59.300 C 55.625 60.424,55.717 60.801,56.232 60.373 C 56.890 59.827,56.980 59.200,56.400 59.200 C 56.180 59.200,55.986 59.245,55.969 59.300 M53.758 62.100 C 52.531 63.429,51.097 65.322,51.863 64.600 C 52.717 63.795,55.288 60.800,55.125 60.800 C 55.033 60.800,54.417 61.385,53.758 62.100 M344.800 63.725 C 344.800 63.794,345.373 64.379,346.074 65.025 L 347.349 66.200 346.374 64.922 C 345.547 63.837,344.800 63.269,344.800 63.725 M48.827 67.430 C 48.112 68.216,47.611 68.945,47.715 69.048 C 47.819 69.152,48.480 68.509,49.185 67.618 C 50.771 65.616,50.573 65.512,48.827 67.430 M347.830 67.300 C 347.942 67.575,348.521 68.144,349.117 68.565 C 350.198 69.329,350.198 69.328,349.025 68.065 C 347.742 66.684,347.519 66.541,347.830 67.300 M351.006 70.912 C 351.392 71.524,351.809 71.924,351.932 71.801 C 352.055 71.678,351.739 71.178,351.230 70.689 L 350.304 69.800 351.006 70.912 M37.200 82.000 C 36.730 82.660,36.436 83.200,36.546 83.200 C 36.656 83.200,37.130 82.660,37.600 82.000 C 38.070 81.340,38.364 80.800,38.254 80.800 C 38.144 80.800,37.670 81.340,37.200 82.000 M28.062 95.689 C 27.168 97.102,27.262 97.810,28.179 96.571 C 28.720 95.839,29.266 94.400,29.002 94.400 C 28.934 94.400,28.511 94.980,28.062 95.689 M20.411 109.771 C 19.817 111.334,19.934 111.580,20.647 110.265 C 20.986 109.640,21.164 109.030,21.042 108.909 C 20.921 108.788,20.637 109.176,20.411 109.771 M389.256 141.200 C 389.256 141.530,389.411 142.160,389.600 142.600 C 389.817 143.104,389.944 143.178,389.944 142.800 C 389.944 142.470,389.789 141.840,389.600 141.400 C 389.383 140.896,389.256 140.822,389.256 141.200 M3.778 156.835 C 3.631 157.074,3.710 157.470,3.955 157.715 C 4.282 158.042,4.400 157.926,4.400 157.280 C 4.400 156.314,4.192 156.165,3.778 156.835 M395.612 172.220 C 395.623 173.254,395.677 173.309,396.054 172.661 C 396.361 172.132,396.358 171.798,396.041 171.481 C 395.720 171.160,395.603 171.359,395.612 172.220 M0.901 176.200 C 0.905 177.080,0.987 177.393,1.083 176.895 C 1.179 176.398,1.175 175.678,1.075 175.295 C 0.975 174.913,0.896 175.320,0.901 176.200 M396.284 175.600 C 396.169 176.039,396.238 176.500,396.438 176.623 C 396.637 176.746,396.800 176.387,396.800 175.824 C 396.800 174.598,396.572 174.499,396.284 175.600 M0.509 181.200 C 0.509 182.190,0.587 182.595,0.682 182.100 C 0.778 181.605,0.778 180.795,0.682 180.300 C 0.587 179.805,0.509 180.210,0.509 181.200 M397.301 186.200 C 397.305 187.080,397.387 187.393,397.483 186.895 C 397.579 186.398,397.575 185.678,397.475 185.295 C 397.375 184.913,397.296 185.320,397.301 186.200 M0.114 187.400 C 0.117 188.500,0.195 188.903,0.287 188.295 C 0.379 187.686,0.377 186.786,0.282 186.295 C 0.187 185.803,0.111 186.300,0.114 187.400 M397.750 198.600 C 397.751 201.020,397.816 201.958,397.896 200.685 C 397.976 199.412,397.975 197.432,397.894 196.285 C 397.814 195.138,397.749 196.180,397.750 198.600 M0.109 210.000 C 0.109 210.990,0.187 211.395,0.282 210.900 C 0.378 210.405,0.378 209.595,0.282 209.100 C 0.187 208.605,0.109 209.010,0.109 210.000 M397.293 211.200 C 397.293 211.970,397.375 212.285,397.476 211.900 C 397.576 211.515,397.576 210.885,397.476 210.500 C 397.375 210.115,397.293 210.430,397.293 211.200 M0.501 216.200 C 0.505 217.080,0.587 217.393,0.683 216.895 C 0.779 216.398,0.775 215.678,0.675 215.295 C 0.575 214.913,0.496 215.320,0.501 216.200 M396.893 216.800 C 396.893 217.570,396.975 217.885,397.076 217.500 C 397.176 217.115,397.176 216.485,397.076 216.100 C 396.975 215.715,396.893 216.030,396.893 216.800 M0.909 220.800 C 0.909 221.790,0.987 222.195,1.082 221.700 C 1.178 221.205,1.178 220.395,1.082 219.900 C 0.987 219.405,0.909 219.810,0.909 220.800 M396.154 220.976 C 396.032 221.292,396.123 221.877,396.354 222.276 C 396.712 222.891,396.778 222.805,396.788 221.700 C 396.801 220.329,396.524 220.012,396.154 220.976 M395.606 225.100 C 395.611 225.901,395.709 226.047,395.969 225.636 C 396.165 225.326,396.233 224.831,396.120 224.536 C 395.796 223.690,395.599 223.906,395.606 225.100 M3.200 238.024 C 3.200 238.477,3.380 238.736,3.600 238.600 C 3.820 238.464,4.000 238.093,4.000 237.776 C 4.000 237.459,3.820 237.200,3.600 237.200 C 3.380 237.200,3.200 237.571,3.200 238.024 M3.722 239.965 C 3.897 241.114,4.400 241.503,4.400 240.490 C 4.400 240.027,4.219 239.536,3.999 239.399 C 3.769 239.257,3.651 239.499,3.722 239.965 M7.600 255.776 C 7.600 256.093,7.780 256.464,8.000 256.600 C 8.220 256.736,8.400 256.477,8.400 256.024 C 8.400 255.571,8.220 255.200,8.000 255.200 C 7.780 255.200,7.600 255.459,7.600 255.776 M35.492 312.673 C 35.388 312.853,35.750 313.450,36.297 314.000 L 37.292 315.000 36.567 313.800 C 36.168 313.140,35.806 312.543,35.761 312.473 C 35.717 312.404,35.595 312.494,35.492 312.673 M351.762 325.658 C 351.005 326.510,351.006 326.513,351.878 326.056 C 352.850 325.546,353.449 324.800,352.886 324.800 C 352.687 324.800,352.181 325.186,351.762 325.658 M346.744 331.500 C 345.475 333.032,345.019 333.742,345.481 333.465 C 345.993 333.158,347.769 330.800,347.489 330.800 C 347.398 330.800,347.063 331.115,346.744 331.500 M51.420 333.106 C 51.629 333.274,52.340 333.859,53.000 334.405 L 54.200 335.397 53.025 334.099 C 52.379 333.384,51.668 332.800,51.445 332.800 C 51.194 332.800,51.184 332.916,51.420 333.106 M339.427 339.357 C 338.202 340.543,337.200 341.649,337.200 341.815 C 337.200 342.073,341.969 337.579,341.992 337.300 C 342.021 336.949,341.393 337.452,339.427 339.357 M63.613 345.100 C 63.619 345.265,64.114 345.746,64.713 346.168 L 65.800 346.936 64.830 345.868 C 63.811 344.746,63.592 344.607,63.613 345.100 M332.200 346.235 L 331.000 347.266 332.300 346.406 C 333.015 345.933,333.600 345.468,333.600 345.373 C 333.600 345.073,333.431 345.178,332.200 346.235 M66.829 347.913 C 66.845 348.071,67.517 348.740,68.324 349.400 L 69.789 350.600 68.795 349.327 C 67.829 348.092,66.770 347.330,66.829 347.913 M70.770 351.332 C 71.789 352.454,72.008 352.593,71.987 352.100 C 71.981 351.935,71.486 351.454,70.887 351.032 L 69.800 350.264 70.770 351.332 M325.462 351.931 C 324.733 352.737,324.572 353.388,325.198 353.001 C 325.615 352.743,326.539 351.200,326.276 351.200 C 326.192 351.200,325.826 351.529,325.462 351.931 M293.600 373.600 C 292.830 374.022,292.344 374.374,292.520 374.383 C 292.944 374.405,295.200 373.232,295.200 372.990 C 295.200 372.728,295.177 372.737,293.600 373.600 M256.400 389.200 C 255.576 389.464,255.541 389.526,256.200 389.554 C 256.640 389.573,257.270 389.413,257.600 389.200 C 258.301 388.747,257.814 388.747,256.400 389.200 M141.400 389.600 C 141.840 389.789,142.470 389.944,142.800 389.944 C 143.178 389.944,143.104 389.817,142.600 389.600 C 142.160 389.411,141.530 389.256,141.200 389.256 C 140.822 389.256,140.896 389.383,141.400 389.600 M171.600 395.965 C 171.600 396.371,172.623 396.311,173.055 395.878 C 173.208 395.725,172.943 395.600,172.467 395.600 C 171.990 395.600,171.600 395.764,171.600 395.965 M224.344 395.957 C 224.841 396.272,226.400 396.117,226.400 395.753 C 226.400 395.669,225.815 395.603,225.100 395.606 C 224.216 395.610,223.974 395.723,224.344 395.957 M175.400 396.400 C 174.696 396.702,174.735 396.747,175.724 396.772 C 176.376 396.788,176.744 396.632,176.600 396.400 C 176.464 396.180,176.318 396.013,176.276 396.028 C 176.234 396.044,175.840 396.211,175.400 396.400 M220.600 396.400 C 220.454 396.636,220.895 396.797,221.676 396.794 C 222.678 396.789,222.854 396.693,222.400 396.400 C 221.622 395.897,220.911 395.897,220.600 396.400 M185.505 397.483 C 186.002 397.579,186.722 397.575,187.105 397.475 C 187.487 397.375,187.080 397.296,186.200 397.301 C 185.320 397.305,185.007 397.387,185.505 397.483 M210.500 397.476 C 210.885 397.576,211.515 397.576,211.900 397.476 C 212.285 397.375,211.970 397.293,211.200 397.293 C 210.430 397.293,210.115 397.375,210.500 397.476 M196.700 397.895 C 197.855 397.976,199.745 397.976,200.900 397.895 C 202.055 397.814,201.110 397.748,198.800 397.748 C 196.490 397.748,195.545 397.814,196.700 397.895 " stroke="none" fill="#fc9e9c" fill-rule="evenodd"></path><path id="path2" d="M336.000 54.755 C 336.000 55.195,337.159 56.174,337.398 55.936 C 337.496 55.838,337.221 55.454,336.788 55.083 C 336.355 54.711,336.000 54.564,336.000 54.755 M54.655 335.912 C 54.525 336.121,54.761 336.603,55.179 336.981 C 55.848 337.586,55.928 337.592,55.846 337.031 C 55.717 336.151,54.951 335.432,54.655 335.912 " stroke="none" fill="#fc5d5b" fill-rule="evenodd"></path><path id="path3" d="" stroke="none" fill="#fc3b39" fill-rule="evenodd"></path><path id="path4" d="M57.804 57.996 C 57.174 58.654,56.735 59.242,56.829 59.303 C 56.923 59.364,57.570 58.826,58.266 58.107 C 58.962 57.388,59.401 56.800,59.241 56.800 C 59.081 56.800,58.434 57.338,57.804 57.996 M343.944 334.423 C 343.050 335.202,343.046 335.223,343.878 334.820 C 344.360 334.587,344.866 334.217,345.001 333.998 C 345.395 333.362,344.963 333.535,343.944 334.423 " stroke="none" fill="#fc7470" fill-rule="evenodd"></path><path id="path5" d="M335.970 55.312 C 336.943 56.404,337.687 56.869,336.852 55.863 C 336.607 55.568,336.540 55.163,336.703 54.963 C 336.867 54.763,336.837 54.733,336.637 54.897 C 336.437 55.060,335.987 54.975,335.637 54.709 C 335.287 54.442,335.436 54.714,335.970 55.312 M396.893 187.200 C 396.893 187.970,396.975 188.285,397.076 187.900 C 397.176 187.515,397.176 186.885,397.076 186.500 C 396.975 186.115,396.893 186.430,396.893 187.200 M397.049 209.415 C 396.912 209.773,396.815 210.366,396.834 210.733 C 396.853 211.100,397.027 210.869,397.221 210.220 C 397.598 208.958,397.465 208.333,397.049 209.415 " stroke="none" fill="#fc4c41" fill-rule="evenodd"></path><path id="path6" d="M338.171 57.497 C 338.815 58.209,339.430 58.704,339.538 58.596 C 339.645 58.488,339.658 58.355,339.567 58.300 C 339.475 58.245,338.860 57.751,338.200 57.201 L 337.000 56.203 338.171 57.497 M397.309 200.800 C 397.309 201.790,397.387 202.195,397.482 201.700 C 397.578 201.205,397.578 200.395,397.482 199.900 C 397.387 199.405,397.309 199.810,397.309 200.800 M57.600 338.600 C 58.346 339.370,59.047 340.000,59.157 340.000 C 59.267 340.000,58.746 339.370,58.000 338.600 C 57.254 337.830,56.553 337.200,56.443 337.200 C 56.333 337.200,56.854 337.830,57.600 338.600 M197.312 397.495 C 198.364 397.577,199.984 397.576,200.912 397.492 C 201.840 397.408,200.980 397.341,199.000 397.342 C 197.020 397.343,196.260 397.412,197.312 397.495 " stroke="none" fill="#fc2a25" fill-rule="evenodd"></path><path id="path7" d="M181.700 1.076 C 182.085 1.176,182.715 1.176,183.100 1.076 C 183.485 0.975,183.170 0.893,182.400 0.893 C 181.630 0.893,181.315 0.975,181.700 1.076 M214.705 1.083 C 215.202 1.179,215.922 1.175,216.305 1.075 C 216.687 0.975,216.280 0.896,215.400 0.901 C 214.520 0.905,214.207 0.987,214.705 1.083 M1.200 221.376 C 1.200 221.913,1.347 222.444,1.528 222.555 C 1.708 222.667,1.777 222.227,1.682 221.579 C 1.472 220.149,1.200 220.035,1.200 221.376 M32.791 307.988 C 33.257 308.641,33.842 309.302,34.091 309.456 C 34.341 309.611,34.041 309.076,33.425 308.268 C 32.088 306.515,31.584 306.292,32.791 307.988 M114.000 378.179 C 114.000 378.289,114.540 378.659,115.200 379.000 C 115.860 379.341,116.400 379.531,116.400 379.421 C 116.400 379.311,115.860 378.941,115.200 378.600 C 114.540 378.259,114.000 378.069,114.000 378.179 " stroke="none" fill="#fc241c" fill-rule="evenodd"></path><path id="path8" d="M397.314 197.400 C 397.317 198.500,397.395 198.903,397.487 198.295 C 397.579 197.686,397.577 196.786,397.482 196.295 C 397.387 195.803,397.311 196.300,397.314 197.400 M0.493 210.000 C 0.493 210.770,0.575 211.085,0.676 210.700 C 0.776 210.315,0.776 209.685,0.676 209.300 C 0.575 208.915,0.493 209.230,0.493 210.000 " stroke="none" fill="#fc342c" fill-rule="evenodd"></path></g></svg>