<?xml version="1.0" standalone="no"?>
<!DOCTYPE svg PUBLIC "-//W3C//DTD SVG 20010904//EN"
 "http://www.w3.org/TR/2001/REC-SVG-20010904/DTD/svg10.dtd">
<svg version="1.0" xmlns="http://www.w3.org/2000/svg"
 width="900.000000pt" height="900.000000pt" viewBox="0 0 900.000000 900.000000"
 preserveAspectRatio="xMidYMid meet">
<metadata>
Created by potrace 1.16, written by Peter Selinger 2001-2019
</metadata>
<g transform="translate(0.000000,900.000000) scale(0.100000,-0.100000)"
fill="#000000" stroke="none">
<path d="M4165 8989 c-465 -35 -903 -134 -1333 -300 -137 -53 -435 -197 -577
-278 -227 -130 -508 -328 -690 -485 -113 -97 -349 -332 -454 -451 -514 -582
-876 -1317 -1026 -2080 -193 -987 -48 -2015 408 -2905 621 -1210 1777 -2083
3102 -2344 466 -92 1012 -111 1437 -51 222 31 461 78 618 121 272 75 618 210
857 334 756 393 1363 961 1795 1678 579 963 771 2098 543 3216 -34 167 -106
426 -159 576 -249 692 -652 1303 -1179 1787 -474 435 -966 732 -1569 944 -547
193 -1203 281 -1773 238z"/>
</g>
</svg>
