<?xml version="1.0" standalone="no"?>
<!DOCTYPE svg PUBLIC "-//W3C//DTD SVG 20010904//EN"
 "http://www.w3.org/TR/2001/REC-SVG-20010904/DTD/svg10.dtd">
<svg version="1.0" xmlns="http://www.w3.org/2000/svg"
 width="1134.000000pt" height="992.000000pt" viewBox="0 0 1134.000000 992.000000"
 preserveAspectRatio="xMidYMid meet">
<metadata>
Created by potrace 1.16, written by Peter Selinger 2001-2019
</metadata>
<g transform="translate(0.000000,992.000000) scale(0.100000,-0.100000)"
fill="#000000" stroke="none">
<path d="M3660 8644 c-66 -28 -71 -43 -64 -184 l7 -125 -99 3 c-55 2 -313 14
-574 28 -261 14 -551 27 -645 30 l-170 5 -120 -83 c-66 -46 -196 -137 -290
-203 -93 -65 -215 -150 -270 -188 -55 -37 -154 -106 -220 -152 -66 -46 -165
-115 -219 -152 -55 -37 -131 -89 -168 -116 l-68 -48 -1 -1287 c-1 -708 -5
-1604 -8 -1992 -6 -665 -6 -706 11 -730 10 -14 24 -39 32 -56 24 -53 83 -93
441 -294 223 -126 627 -361 730 -425 308 -191 550 -320 627 -334 42 -7 132 -6
325 4 294 16 990 49 1343 65 124 5 240 12 257 16 38 7 73 38 73 63 0 10 9 26
20 36 18 16 40 72 40 101 0 6 -39 25 -87 43 -49 18 -164 62 -256 97 -92 35
-171 64 -176 64 -16 0 -21 137 -21 545 l0 411 363 22 c199 13 567 36 817 52
250 16 536 34 635 40 298 17 796 49 866 55 l66 5 7 -247 c4 -135 3 -250 -1
-254 -4 -4 -71 -12 -148 -18 -164 -14 -464 -56 -550 -77 -151 -38 -214 -64
-270 -116 -30 -27 -55 -58 -55 -68 0 -30 29 -89 50 -100 11 -6 20 -21 20 -34
0 -13 8 -30 18 -38 56 -50 241 -109 427 -137 329 -49 387 -52 908 -48 271 3
548 10 617 16 285 27 585 93 711 156 40 21 49 31 55 60 3 19 10 35 15 35 14 0
40 46 49 87 9 36 7 39 -43 88 -43 43 -66 56 -135 78 -150 49 -471 93 -752 103
-85 3 -169 7 -186 10 l-31 4 13 83 c7 45 27 166 44 269 16 103 30 189 30 191
0 3 55 8 123 12 67 3 298 17 512 30 215 14 487 29 605 35 118 5 265 13 325 16
61 3 142 8 180 10 39 2 142 8 230 13 157 10 356 21 485 26 36 2 165 9 288 17
248 16 254 18 255 85 0 21 -10 497 -21 1058 -12 561 -26 1281 -32 1600 -23
1305 -21 1244 -39 1266 -20 25 35 20 -916 74 -346 20 -837 49 -1090 65 -253
16 -498 32 -545 35 -171 10 -1456 98 -2205 150 -1095 77 -2092 152 -2104 159
-3 2 -22 -2 -41 -10z m2213 -389 c32 -2 62 -7 67 -10 9 -6 179 -228 323 -422
l61 -82 71 3 c38 2 49 1 23 -1 l-47 -4 43 -57 c80 -106 80 -105 51 -132 -19
-18 -31 -22 -60 -17 -39 6 -43 2 -18 -25 15 -17 15 -20 2 -34 -14 -13 -19 -10
-46 24 l-31 39 -103 6 c-56 4 -104 9 -108 12 -12 13 26 25 79 25 41 1 50 3 34
10 -12 5 -25 13 -29 19 -3 6 -10 9 -15 6 -4 -3 -13 2 -20 10 -7 8 -21 15 -30
15 -10 0 -33 12 -51 27 -30 25 -38 27 -103 24 -39 -1 -73 -4 -74 -6 -2 -2 14
-28 37 -57 41 -54 41 -55 5 -72 -2 -1 -98 122 -189 240 -33 43 -78 101 -100
128 -152 191 -198 258 -184 267 8 5 21 8 30 5 9 -2 21 5 28 16 6 10 26 27 44
38 33 20 84 21 310 5z m335 -26 c72 -6 132 -16 132 -21 0 -6 -7 -7 -16 -4 -12
5 -15 2 -10 -11 6 -16 6 -16 -12 0 -25 23 -35 21 -22 -3 8 -16 8 -20 -4 -20
-10 0 -21 -21 -32 -60 -9 -33 -20 -58 -24 -55 -10 6 -9 -28 2 -42 5 -7 5 -14
-2 -18 -13 -8 -13 -25 1 -25 5 0 7 5 3 12 -5 7 -3 8 5 3 9 -5 10 -10 2 -18 -7
-7 -7 -15 1 -26 7 -9 0 -5 -15 9 -15 13 -25 30 -23 37 3 7 1 12 -4 10 -5 -1
-28 23 -52 54 -24 31 -63 83 -88 115 -68 88 -67 84 -18 79 24 -2 103 -10 176
-16z m1472 -94 c0 -3 -15 -26 -32 -50 -22 -29 -39 -42 -49 -39 -12 3 -35 -21
-80 -83 -35 -48 -81 -110 -102 -138 -124 -161 -146 -195 -141 -209 6 -15 -79
-146 -95 -146 -4 0 -16 6 -26 14 -19 14 -18 16 26 73 24 32 89 117 144 188
175 231 268 349 289 372 19 19 66 32 66 18z m481 -49 c-7 -8 -9 -21 -5 -27 4
-7 3 -9 -3 -6 -12 8 -56 -50 -48 -63 4 -6 2 -9 -3 -8 -6 2 -21 -13 -34 -32
-13 -19 -45 -64 -69 -100 -155 -222 -295 -426 -303 -439 -20 -36 15 9 90 114
43 61 95 131 117 158 21 26 36 47 33 47 -3 0 2 8 12 18 9 10 26 31 37 46 24
34 63 83 87 110 10 11 18 23 18 28 0 4 8 16 18 26 9 9 30 33 46 52 15 19 25
28 21 20 -7 -12 -5 -13 6 -2 18 17 32 15 25 -3 -3 -9 1 -18 9 -21 12 -5 12
-11 -6 -35 -23 -33 -18 -49 14 -49 25 0 165 -30 417 -89 142 -34 441 -99 584
-127 22 -5 27 -3 21 7 -5 8 1 6 12 -4 11 -9 22 -15 25 -12 8 8 -3 55 -13 55
-5 0 -14 11 -21 24 -9 21 -16 24 -39 19 -22 -4 -29 -2 -29 11 0 9 -6 16 -14
16 -8 0 -22 10 -31 23 -8 12 -19 21 -23 19 -4 -1 -8 5 -10 16 -2 10 -16 23
-32 29 -17 6 -30 18 -30 27 0 9 -11 18 -25 22 -14 3 -25 10 -25 15 0 5 -8 10
-17 10 -16 1 -16 2 -1 6 9 2 19 11 22 20 4 10 2 14 -8 10 -8 -3 -17 -3 -21 1
-3 4 -12 7 -18 8 -7 0 -20 2 -29 2 -10 1 -18 10 -18 20 0 14 2 15 10 2 8 -13
11 -13 19 -1 8 12 75 10 447 -13 849 -53 1005 -63 1008 -67 2 -2 7 -241 11
-531 6 -373 5 -528 -3 -528 -6 0 -12 12 -14 28 -2 20 -8 26 -22 24 -13 -3 -17
1 -13 12 4 9 1 13 -7 10 -7 -3 -43 10 -80 27 -53 25 -66 35 -60 48 31 73 33
86 16 99 -15 11 -20 9 -38 -14 -21 -26 -22 -26 -36 -6 -8 11 -20 22 -28 24 -8
2 -24 14 -37 27 -13 13 -23 20 -23 15 0 -5 -11 4 -25 19 -14 15 -30 27 -36 27
-6 0 -7 5 -4 10 3 6 -3 10 -14 10 -10 0 -32 14 -48 31 -30 33 -69 53 -93 50
-12 -1 -12 0 -2 7 11 7 10 12 -3 26 -24 23 -54 38 -65 31 -6 -4 -7 1 -3 11 4
11 3 15 -5 10 -6 -3 -13 3 -17 14 -3 11 -11 20 -16 20 -6 0 -20 12 -33 27 -21
24 -26 26 -40 14 -15 -12 -19 -11 -32 8 -9 12 -21 20 -27 18 -12 -4 -37 16
-37 30 0 4 -11 13 -24 19 -20 9 -28 8 -45 -9 -15 -16 -23 -18 -34 -9 -8 7 -17
9 -20 5 -4 -3 -7 2 -7 13 -1 19 -1 19 -15 0 -8 -10 -12 -23 -9 -27 11 -18 -9
-8 -25 13 -14 17 -18 18 -18 5 0 -9 5 -13 10 -10 6 4 8 0 4 -10 -3 -9 -2 -19
3 -22 18 -11 10 -26 -12 -23 -14 2 -23 10 -22 20 1 10 -4 14 -11 11 -8 -2 -19
6 -25 19 -10 21 -10 21 3 5 14 -16 15 -16 28 0 9 11 10 14 2 9 -7 -4 -13 -3
-13 3 0 13 45 25 59 16 6 -3 11 -2 11 4 0 16 -172 61 -495 130 -291 62 -651
142 -690 153 -37 10 -38 12 -15 18 22 5 23 7 7 13 -10 4 -31 7 -45 7 -29 -1
-27 2 -278 -340 -178 -241 -166 -221 -149 -240 14 -16 9 -26 -55 -111 l-70
-94 53 -49 c38 -36 42 -41 12 -18 -22 17 -59 48 -83 69 l-44 38 29 40 c92 128
123 175 119 175 -3 0 -38 -46 -78 -103 l-73 -102 3 -83 c3 -82 4 -83 23 -66
21 19 25 17 85 -38 l31 -29 85 128 c94 140 132 194 286 416 57 81 105 147 107
147 7 0 -94 -154 -220 -335 -279 -403 -256 -361 -253 -464 2 -74 0 -81 -29
-117 l-31 -39 -21 27 c-12 15 -55 45 -96 68 -41 23 -75 47 -75 54 0 7 20 39
45 72 l44 59 1 103 0 103 38 52 c21 29 90 129 153 222 111 163 166 243 278
402 28 39 51 73 51 75 0 2 -10 4 -21 5 -23 2 -35 10 -27 18 3 3 17 1 31 -4 22
-9 28 -6 43 17 41 64 96 133 101 128 3 -3 0 -12 -6 -20z m-217 -104 c22 4 24
3 15 -13 -7 -13 -6 -19 1 -19 17 0 -17 -57 -88 -149 -45 -59 -61 -86 -52 -91
9 -6 6 -18 -14 -46 -17 -26 -22 -40 -14 -45 7 -5 -1 -24 -26 -58 -39 -52 -50
-62 -40 -36 4 8 1 15 -5 15 -6 0 -11 -4 -11 -9 0 -5 -14 -14 -30 -20 -17 -5
-33 -17 -36 -26 -3 -8 -13 -15 -21 -15 -10 0 -14 -7 -10 -19 4 -17 -22 -51
-41 -51 -4 0 -25 -19 -48 -43 -61 -63 -94 -88 -104 -82 -14 9 -12 36 5 69 8
15 15 34 15 40 0 14 55 92 85 121 23 22 95 138 95 152 0 5 18 29 40 53 22 24
40 49 40 57 0 7 7 13 15 13 8 0 15 5 15 10 0 6 7 10 15 10 8 0 19 9 25 20 6
11 15 20 21 20 15 0 41 28 35 38 -6 10 64 52 87 52 19 0 31 16 22 31 -5 6 -11
4 -19 -7 -9 -12 -17 -14 -29 -7 -16 8 -16 10 0 30 11 14 20 18 24 11 4 -6 18
-9 33 -6z m814 -414 c45 -33 82 -67 82 -76 0 -17 -38 -62 -53 -62 -5 0 -62 39
-125 88 l-115 87 41 6 c24 3 48 11 54 17 13 13 11 15 116 -60z m-221 -41 c10
-10 56 -39 103 -63 131 -68 128 -64 92 -116 -57 -82 -88 -113 -97 -98 -5 8 -4
11 2 7 6 -4 14 0 17 8 4 12 2 14 -11 6 -11 -6 -25 -6 -38 1 -14 8 -12 2 9 -21
31 -32 29 -56 -1 -29 -20 18 -242 138 -255 138 -13 0 -9 -18 12 -61 12 -22 25
-52 31 -67 l10 -27 -23 23 c-45 42 -64 24 -26 -24 13 -15 21 -37 20 -48 -3
-13 1 -17 12 -13 8 3 18 1 22 -5 4 -7 3 -8 -4 -4 -22 14 -12 -7 23 -46 20 -21
33 -44 29 -49 -3 -6 8 -26 26 -44 30 -31 31 -35 17 -54 -14 -21 -14 -21 -27 9
-7 16 -17 30 -22 30 -6 0 -7 7 -4 15 3 9 -1 18 -9 21 -8 4 -15 10 -15 16 0 5
6 6 13 2 9 -5 9 -4 1 5 -9 10 -16 10 -32 0 -18 -11 -28 -10 -67 9 -46 22 -84
31 -55 12 12 -8 9 -10 -12 -10 -16 0 -28 -4 -28 -9 0 -14 36 -50 95 -96 28
-22 73 -60 100 -85 28 -25 75 -63 105 -83 30 -21 95 -67 143 -102 l89 -65 20
23 19 22 -15 -26 c-9 -14 -13 -29 -9 -32 3 -4 -1 -7 -10 -7 -10 0 -17 4 -17 9
0 11 -283 201 -299 201 -7 0 -51 27 -99 59 -48 33 -100 65 -117 71 -59 24 -74
33 -70 41 3 4 -4 5 -15 2 -13 -3 -33 5 -55 21 -47 37 -90 76 -81 76 9 0 -29
56 -63 93 -15 17 -20 27 -11 25 8 -2 14 5 15 17 0 14 7 19 24 19 19 0 30 11
49 45 30 58 64 100 80 100 7 1 15 8 18 16 4 8 13 15 20 15 8 0 17 7 20 15 4 8
10 12 15 9 5 -3 9 0 9 6 0 6 4 9 8 6 4 -3 16 10 26 28 17 31 23 34 112 51 71
13 100 23 117 41 20 22 23 22 34 6 7 -9 20 -25 30 -35z m-384 -586 c26 -13 47
-28 47 -33 0 -4 7 -8 17 -8 18 0 75 -41 113 -81 14 -14 88 -73 165 -129 77
-56 156 -115 175 -130 19 -14 43 -29 53 -33 9 -3 17 -11 17 -17 0 -14 -9 -8
-135 81 -118 83 -181 125 -250 163 l-50 27 30 -28 c17 -15 51 -45 75 -66 59
-50 38 -39 -93 51 -69 47 -105 66 -98 53 13 -24 81 -81 229 -195 56 -43 102
-80 102 -82 0 -4 -75 43 -159 99 -25 16 -51 30 -59 31 -7 1 -18 9 -23 17 -5 8
-9 10 -9 6 0 -4 -10 -2 -22 4 -41 21 -1 -10 280 -215 50 -38 92 -70 92 -72 0
-5 -71 44 -280 189 -89 62 -89 59 -1 -18 30 -26 66 -61 80 -78 l26 -32 -35 28
c-19 15 -68 54 -108 85 -40 31 -90 71 -111 87 -21 17 -66 52 -100 78 -116 91
-61 39 110 -104 94 -79 179 -150 187 -156 14 -12 13 -16 -6 -43 -12 -16 -22
-33 -22 -38 0 -8 111 -105 169 -148 12 -10 11 -16 -8 -48 -13 -20 -22 -38 -20
-39 49 -33 90 -57 94 -57 3 0 22 -11 43 -24 54 -34 229 -135 284 -164 68 -36
73 -44 42 -77 l-27 -29 29 -25 c16 -14 47 -41 69 -59 22 -18 31 -29 20 -24
-11 6 -42 29 -68 53 -34 29 -51 39 -56 30 -5 -8 -57 16 -172 80 -90 50 -170
96 -177 101 -10 8 -11 6 -6 -8 7 -20 -13 -4 -103 80 -77 72 -59 27 23 -55 47
-49 74 -83 67 -86 -17 -6 -16 -32 0 -39 8 -3 24 -19 37 -36 26 -36 8 -28 -44
19 -48 45 -96 73 -124 73 -14 0 -27 9 -34 25 -7 15 -17 24 -25 21 -10 -4 -9 2
3 25 26 51 -2 23 -61 -61 -31 -44 -53 -85 -49 -91 21 -34 -44 21 -111 95 -43
47 -81 84 -85 83 -3 -1 -53 49 -109 111 -56 61 -105 112 -109 112 -4 0 -19
-18 -33 -40 l-26 -39 -21 28 c-15 20 -18 31 -10 39 8 8 4 9 -12 5 -22 -6 -22
-4 8 40 34 49 37 57 22 57 -5 0 -20 -16 -32 -35 -13 -19 -27 -35 -31 -35 -5 0
2 14 15 31 13 17 27 37 32 43 6 9 -8 31 -44 70 -75 80 -85 95 -71 109 9 9 22
1 53 -33 90 -99 121 -130 126 -125 6 5 -5 18 -102 123 l-58 62 39 53 c21 28
75 101 120 161 l83 110 -35 29 c-19 16 -32 33 -29 39 3 5 -7 23 -22 40 l-29
30 27 -13 c22 -9 31 -9 43 1 12 10 22 9 52 -5 21 -10 45 -28 55 -40 19 -24 96
-60 107 -50 7 7 -23 32 -94 79 -27 19 -59 44 -70 56 l-20 23 25 -13 c14 -7 48
-29 75 -49 67 -50 73 -53 79 -42 3 5 -15 23 -42 40 -26 17 -65 47 -87 67 -36
31 -30 30 45 -17 47 -29 106 -64 133 -78z m-651 -207 c43 -49 76 -95 73 -102
-3 -7 -1 -11 4 -8 14 9 103 -95 93 -108 -5 -6 -34 -44 -66 -84 l-57 -73 -67
36 c-36 19 -66 34 -67 32 -1 -1 -18 -23 -38 -48 -20 -25 -37 -50 -37 -55 0 -5
26 -55 58 -110 58 -100 58 -101 40 -124 -18 -22 -18 -22 -49 -3 -21 12 -47 47
-79 105 l-48 86 25 35 25 35 -61 100 c-34 54 -61 102 -61 105 0 19 212 278
224 274 6 -2 46 -44 88 -93z m-182 -982 c64 -20 237 -62 254 -62 4 0 6 7 2 15
-13 34 5 10 53 -69 70 -116 83 -149 71 -181 -8 -22 -13 -24 -29 -15 -26 13
-101 13 -101 0 0 -6 -11 -22 -25 -35 -13 -14 -20 -25 -14 -25 6 0 7 -5 4 -10
-4 -6 -16 -8 -27 -4 -11 3 -26 7 -32 9 -6 1 -24 7 -39 13 -16 7 -32 12 -37 12
-5 0 -18 14 -30 31 -13 17 -28 28 -36 25 -9 -4 -23 12 -40 47 -33 64 -66 160
-54 152 6 -4 10 -1 10 5 0 6 5 8 10 5 13 -8 13 -4 -4 36 -26 64 -30 82 -14 77
7 -3 43 -15 78 -26z m-485 -2 c3 -5 15 -10 26 -10 10 0 19 -6 19 -14 0 -17 33
-31 38 -17 6 18 17 12 35 -19 10 -17 13 -30 8 -30 -6 0 -11 -13 -11 -29 0 -26
-14 -41 -40 -41 -5 0 -12 16 -16 35 -3 19 -10 38 -15 41 -5 3 -8 0 -7 -8 2 -9
-8 -12 -34 -11 -21 1 -38 -2 -38 -7 0 -6 -17 -10 -39 -10 -33 0 -40 4 -51 29
-8 21 -17 28 -28 24 -15 -6 -15 -4 1 14 9 11 35 25 57 32 21 6 42 16 45 21 8
13 42 13 50 0z m1826 -415 c173 -198 192 -223 183 -237 -4 -7 -23 -34 -42 -60
-30 -39 -38 -45 -50 -35 -12 9 -16 9 -20 -1 -3 -10 -13 -5 -35 15 -16 15 -27
21 -23 13 10 -21 -41 38 -131 148 -41 52 -86 98 -99 104 -13 6 -23 18 -22 27
2 9 -16 25 -47 41 -100 50 -145 84 -142 105 2 17 8 20 42 17 l40 -2 -27 15
c-38 21 -27 46 15 38 18 -3 34 -7 36 -9 2 -2 10 1 18 7 9 8 17 8 26 1 10 -9
20 -5 42 16 l30 27 50 -55 c28 -30 98 -109 156 -175z"/>
<path d="M5706 7888 c135 -188 148 -202 173 -189 9 5 39 12 66 17 28 4 43 9
35 12 -17 6 -132 91 -142 107 -4 5 -8 6 -8 2 0 -4 -14 8 -30 27 -27 30 -70 52
-92 48 -5 -1 -8 2 -8 7 0 5 -7 12 -16 15 -9 3 0 -16 22 -46z"/>
<path d="M8073 6581 c-11 -18 -3 -28 80 -103 51 -46 109 -98 131 -117 l38 -32
24 22 c13 12 24 19 24 15 0 -8 -208 -292 -225 -306 -12 -10 -54 30 -195 188
-62 69 -80 83 -80 63 0 -5 35 -51 77 -103 82 -100 107 -128 223 -257 41 -46
79 -90 83 -97 19 -33 21 -31 192 219 17 24 49 66 73 94 l42 51 -62 54 c-35 30
-81 68 -103 84 -22 16 -97 77 -168 137 -70 59 -131 107 -135 107 -4 0 -13 -9
-19 -19z"/>
<path d="M7906 6358 c-18 -26 -24 -17 124 -182 l104 -117 18 23 c10 13 18 28
18 33 0 6 -43 57 -96 114 -53 57 -106 114 -117 127 -25 29 -32 30 -51 2z"/>
<path d="M6970 2534 c-8 -2 -118 -10 -245 -19 -126 -8 -302 -22 -390 -30 -88
-7 -200 -17 -250 -20 -49 -3 -126 -10 -170 -15 -44 -5 -204 -18 -355 -30 -423
-32 -1094 -87 -1520 -125 -212 -19 -560 -51 -775 -70 -595 -53 -1151 -104
-1338 -121 -242 -22 -262 -36 -181 -132 26 -31 50 -59 51 -62 2 -2 8 1 12 8 5
8 28 -11 72 -60 74 -83 106 -128 91 -128 -6 0 -17 8 -24 19 -20 28 -91 104
-113 121 -11 8 -1 -7 23 -34 46 -53 49 -71 6 -37 -34 26 -48 27 -41 1 3 -11 1
-23 -4 -26 -5 -3 -9 -17 -9 -31 0 -27 17 -49 164 -204 50 -53 115 -122 145
-155 30 -32 95 -102 145 -154 50 -52 140 -151 200 -220 138 -159 140 -161 206
-245 30 -38 57 -72 61 -75 3 -3 10 -12 15 -21 5 -9 29 -33 52 -53 44 -36 44
-36 115 -30 105 8 459 52 557 69 47 8 191 32 320 54 251 43 568 93 740 117 58
7 175 27 260 43 85 17 227 41 315 55 356 56 1163 188 1200 196 22 5 108 18
190 30 83 12 292 45 465 75 277 48 429 72 835 130 55 8 147 24 205 35 58 11
267 45 465 75 198 30 377 60 398 65 30 9 42 20 62 60 13 27 29 51 34 55 6 3
63 -4 128 -15 299 -53 291 -52 483 -47 184 5 307 23 345 51 15 11 16 18 5 72
-47 228 -200 387 -434 451 -78 21 -235 28 -308 14 -180 -35 -217 -45 -212 -53
3 -4 10 -5 16 -2 6 4 8 2 5 -3 -6 -10 -51 -24 -87 -28 -8 -1 -22 -4 -30 -7 -8
-3 -49 -13 -90 -23 -41 -9 -110 -29 -152 -43 l-77 -25 -93 53 c-51 30 -108 65
-127 77 -19 13 -45 26 -58 29 -13 4 -113 56 -221 116 -354 198 -323 187 -675
243 -195 31 -349 42 -407 29z m-4685 -423 c-6 -5 -19 -11 -30 -14 -18 -4 -18
-5 3 -6 12 0 33 5 45 13 12 8 45 14 72 14 46 0 48 -1 23 -11 -16 -6 -28 -18
-28 -29 0 -11 -7 -18 -20 -18 -12 0 -20 7 -20 16 0 12 -6 15 -22 10 -13 -3
-33 -6 -46 -6 -14 0 -21 -4 -16 -11 4 -6 21 -8 43 -5 29 5 32 4 13 -4 -13 -5
-38 -10 -55 -10 -58 1 -151 -7 -194 -15 -23 -4 -55 -4 -70 0 -27 6 -27 7 -9
21 20 14 20 14 0 15 -45 1 32 20 81 19 27 0 70 2 95 4 44 5 44 5 13 -6 -43
-14 -42 -28 1 -28 25 0 35 5 39 19 3 12 19 24 38 30 46 13 55 13 44 2z m609
-510 c16 -18 15 -19 -46 -30 -35 -6 -121 -16 -193 -22 -81 -7 -136 -17 -146
-25 -28 -25 -38 -17 -27 20 l11 34 86 8 c47 4 124 12 171 19 119 17 125 17
144 -4z m3982 -44 c-16 -12 -16 -14 -2 -26 11 -9 16 -10 16 -2 0 6 -5 11 -12
11 -6 0 -9 3 -6 6 7 7 48 -18 48 -29 0 -4 -4 -6 -9 -3 -5 4 -21 2 -35 -4 -17
-6 -26 -6 -26 0 0 15 -17 12 -34 -6 -9 -8 -16 -13 -16 -10 0 2 -13 1 -30 -4
-17 -5 -30 -5 -30 0 0 12 -29 1 -59 -22 -13 -10 -29 -18 -35 -18 -6 0 -4 5 4
10 8 5 10 10 5 10 -6 0 -16 -5 -23 -12 -6 -6 -22 -13 -34 -15 -33 -5 -63 -11
-63 -13 0 -1 -10 -3 -22 -4 -13 -2 -23 1 -23 6 0 5 -11 6 -24 2 -13 -3 -27 -1
-30 5 -4 6 -12 11 -18 11 -5 0 0 -8 13 -19 l23 -18 -32 1 c-25 1 -32 6 -33 21
0 16 -3 14 -11 -7 -6 -18 -17 -28 -31 -29 -43 -3 -72 -6 -105 -13 -26 -5 -32
-4 -26 6 4 7 -5 2 -20 -12 -19 -17 -36 -23 -61 -22 -19 2 -35 -2 -35 -7 0 -5
-10 -9 -22 -9 -13 0 -59 -5 -103 -12 -44 -6 -86 -12 -92 -13 -7 0 -13 -5 -13
-10 0 -5 -7 -6 -16 -3 -9 3 -21 3 -27 -1 -15 -9 -31 -12 -79 -14 -21 -1 -38
-6 -38 -10 0 -4 -8 -8 -17 -8 -10 0 -29 -2 -43 -5 -26 -5 -69 -11 -129 -20
-18 -3 -41 -8 -51 -11 -29 -9 -61 -15 -122 -22 -32 -3 -58 -10 -58 -15 0 -5
-4 -7 -8 -4 -5 3 -62 -6 -128 -20 -115 -24 -251 -48 -344 -59 -74 -9 -124 -16
-130 -20 -6 -3 -88 -15 -135 -19 -24 -3 -95 -12 -150 -20 -5 -1 -16 -5 -22 -9
-7 -5 -34 -10 -60 -13 -73 -8 -94 -11 -147 -23 -27 -7 -51 -9 -54 -6 -3 2 -11
0 -18 -6 -7 -6 -28 -12 -46 -13 -18 -2 -60 -7 -93 -11 -33 -4 -60 -7 -60 -5 0
2 -9 -1 -20 -7 -11 -6 -47 -14 -80 -18 -33 -3 -70 -8 -81 -11 -12 -3 -42 -7
-66 -8 -25 -2 -50 -6 -56 -10 -6 -3 -28 -8 -49 -10 -107 -11 -232 -28 -263
-35 -19 -5 -42 -9 -50 -10 -51 -2 -121 -11 -130 -16 -11 -7 -147 -24 -235 -30
-33 -2 -67 -5 -74 -7 -16 -3 -22 6 -85 139 -36 74 -41 93 -29 97 8 3 19 4 24
0 5 -3 9 -1 9 4 0 6 16 9 35 7 19 -2 37 0 40 5 3 5 12 7 20 3 9 -3 15 1 15 8
1 9 6 7 15 -5 8 -11 15 -16 15 -12 0 4 10 0 22 -8 33 -23 78 -20 396 24 158
22 321 44 362 50 179 24 366 51 380 55 17 5 -90 -3 -165 -12 -48 -6 -49 -5
-34 13 9 10 18 26 21 34 7 20 187 48 197 32 4 -6 19 -18 35 -26 l29 -15 -34
-10 c-73 -22 -34 -17 1131 149 151 21 298 42 325 45 28 4 129 17 225 31 96 13
195 26 219 30 31 4 46 2 52 -8 7 -10 9 -9 9 5 0 20 16 23 23 5 3 -10 7 -10 18
-1 8 6 31 14 52 18 32 6 36 5 31 -9 -4 -11 -1 -16 11 -16 9 0 14 -4 10 -9 -3
-5 -1 -12 3 -15 5 -3 8 9 8 27 -1 26 3 33 22 35 24 4 32 -22 10 -32 -7 -3 0
-4 15 -1 25 5 27 4 18 -14 -9 -16 -8 -18 10 -14 16 4 18 8 7 14 -10 7 -10 9 2
9 12 1 11 3 -2 11 -10 5 -18 17 -18 24 0 8 8 15 18 15 9 0 35 3 56 7 34 5 38
4 33 -10 -7 -18 12 -14 52 12 18 11 26 12 28 4 3 -7 10 -10 18 -7 7 3 16 0 20
-5 3 -6 11 -9 16 -5 6 4 6 10 -1 19 -8 10 9 15 82 24 219 28 232 29 253 15 26
-19 33 -18 40 6 3 11 14 20 23 20 14 0 14 -2 -2 -13z m-3757 -91 l22 -24 -78
-11 c-135 -19 -256 -31 -317 -31 -41 0 -68 -6 -92 -20 -38 -24 -46 -17 -28 28
13 29 18 32 57 32 47 0 380 39 386 46 10 10 29 2 50 -20z m304 -158 c-15 -4
-57 -11 -93 -14 -36 -4 -74 -12 -86 -19 -34 -21 -92 -29 -109 -15 -12 10 -28
10 -73 1 -31 -6 -91 -13 -132 -16 -41 -3 -87 -8 -101 -10 -23 -4 -26 -1 -22
18 4 17 3 19 -6 11 -7 -6 -13 -21 -14 -33 -1 -11 -7 -21 -13 -21 -9 0 -10 9
-2 34 11 34 12 34 82 41 116 10 478 55 516 64 28 6 39 4 58 -13 l23 -21 -28
-7z m245 -116 c2 -7 -2 -10 -12 -6 -9 3 -16 2 -16 -4 0 -15 32 -24 40 -12 5 7
11 6 19 -4 15 -18 9 -20 -119 -41 -109 -17 -190 -19 -190 -5 0 6 4 10 8 10 5
0 9 7 9 15 0 27 -25 16 -32 -15 -4 -16 -11 -30 -17 -30 -6 0 -7 7 -4 16 3 9 6
24 6 34 0 15 12 19 83 25 45 3 109 12 142 19 68 15 77 15 83 -2z m-379 -93 c1
-6 -198 -39 -328 -55 -48 -6 -53 -4 -47 11 3 9 9 27 12 39 4 18 13 22 57 24
55 2 228 30 235 37 5 5 70 -46 71 -56z"/>
</g>
</svg>
