<svg id="svg" version="1.1" xmlns="http://www.w3.org/2000/svg" xmlns:xlink="http://www.w3.org/1999/xlink" width="400" height="400" viewBox="0, 0, 400,400"><g id="svgg"><path id="path0" d="M0.000 200.000 L 0.000 400.000 200.000 400.000 L 400.000 400.000 400.000 200.000 L 400.000 0.000 200.000 0.000 L 0.000 0.000 0.000 200.000 M190.753 48.312 L 190.753 77.299 139.013 77.299 L 87.273 77.299 87.273 104.416 L 87.273 131.532 139.013 131.532 L 190.753 131.532 190.753 160.623 L 190.753 189.714 107.429 189.714 L 24.104 189.714 24.104 104.519 L 24.104 19.325 107.429 19.325 L 190.753 19.325 190.753 48.312 M275.532 47.377 L 275.532 75.429 295.584 75.429 L 315.636 75.429 315.636 47.377 L 315.636 19.325 347.325 19.325 L 379.013 19.325 379.013 104.519 L 379.013 189.714 347.325 189.714 L 315.636 189.714 315.636 161.662 L 315.636 133.610 295.584 133.610 L 275.532 133.610 275.532 161.662 L 275.532 189.714 243.948 189.714 L 212.364 189.714 212.364 104.519 L 212.364 19.325 243.948 19.325 L 275.532 19.325 275.532 47.377 M190.753 237.818 L 190.753 266.805 139.013 266.805 L 87.273 266.805 87.273 322.909 L 87.273 379.013 55.688 379.013 L 24.104 379.013 24.104 293.922 L 24.104 208.831 107.429 208.831 L 190.753 208.831 190.753 237.818 M379.013 239.481 L 379.013 268.468 327.273 268.468 L 275.532 268.468 275.532 295.584 L 275.532 322.701 327.273 322.701 L 379.013 322.701 379.013 351.688 L 379.013 380.675 295.688 380.675 L 212.364 380.675 212.364 295.584 L 212.364 210.494 295.688 210.494 L 379.013 210.494 379.013 239.481 " stroke="none" fill="#045cac" fill-rule="evenodd"></path><path id="path1" d="M24.104 104.519 L 24.104 189.506 107.429 189.506 L 190.753 189.506 190.753 160.623 L 190.753 131.740 139.013 131.740 L 87.273 131.740 87.273 104.519 L 87.273 77.299 139.013 77.299 L 190.753 77.299 190.753 48.416 L 190.753 19.532 107.429 19.532 L 24.104 19.532 24.104 104.519 M212.364 104.519 L 212.364 189.506 243.844 189.506 L 275.325 189.506 275.325 161.455 L 275.325 133.403 295.584 133.403 L 315.844 133.403 315.844 161.455 L 315.844 189.506 347.325 189.506 L 378.805 189.506 378.805 104.519 L 378.805 19.532 347.325 19.532 L 315.844 19.532 315.844 47.584 L 315.844 75.636 295.584 75.636 L 275.325 75.636 275.325 47.584 L 275.325 19.532 243.844 19.532 L 212.364 19.532 212.364 104.519 M186.390 48.312 L 186.390 72.935 134.649 72.935 L 82.909 72.935 82.909 104.416 L 82.909 135.896 134.649 135.896 L 186.390 135.896 186.390 160.623 L 186.390 185.351 107.429 185.351 L 28.468 185.351 28.468 104.519 L 28.468 23.688 107.429 23.688 L 186.390 23.688 186.390 48.312 M271.169 51.740 L 271.169 79.792 295.584 79.792 L 320.000 79.792 320.000 51.740 L 320.000 23.688 347.325 23.688 L 374.650 23.688 374.598 104.468 L 374.545 185.247 347.325 185.247 L 320.104 185.247 320.051 157.247 L 319.998 129.247 295.584 129.247 L 271.170 129.247 271.118 157.247 L 271.065 185.247 243.896 185.299 L 216.727 185.352 216.727 104.520 L 216.727 23.688 243.948 23.688 L 271.169 23.688 271.169 51.740 M24.104 293.922 L 24.104 379.013 55.688 379.013 L 87.273 379.013 87.273 322.838 L 87.273 266.663 139.013 266.763 L 190.753 266.863 190.753 237.847 L 190.753 208.831 107.429 208.831 L 24.104 208.831 24.104 293.922 M212.364 295.584 L 212.364 380.675 295.584 380.675 L 378.805 380.675 378.805 351.688 L 378.805 322.701 327.065 322.701 L 275.325 322.701 275.325 295.584 L 275.325 268.468 327.065 268.468 L 378.805 268.468 378.805 239.481 L 378.805 210.494 295.584 210.494 L 212.364 210.494 212.364 295.584 M186.390 237.818 L 186.390 262.442 134.649 262.442 L 82.909 262.442 82.909 318.545 L 82.909 374.649 55.688 374.649 L 28.468 374.649 28.468 293.922 L 28.468 213.195 107.429 213.195 L 186.390 213.195 186.390 237.818 M374.649 239.481 L 374.649 264.104 322.909 264.104 L 271.169 264.104 271.169 295.584 L 271.169 327.065 322.909 327.065 L 374.649 327.065 374.649 351.688 L 374.649 376.312 295.688 376.312 L 216.727 376.312 216.727 295.584 L 216.727 214.857 295.688 214.857 L 374.649 214.857 374.649 239.481 " stroke="none" fill="#fbf9f9" fill-rule="evenodd"></path><path id="path2" d="M28.468 104.519 L 28.468 185.143 107.429 185.143 L 186.390 185.143 186.390 160.623 L 186.390 136.104 134.649 136.104 L 82.909 136.104 82.909 104.519 L 82.909 72.935 134.649 72.935 L 186.390 72.935 186.390 48.416 L 186.390 23.896 107.429 23.896 L 28.468 23.896 28.468 104.519 M216.727 104.519 L 216.727 185.143 243.844 185.143 L 270.961 185.143 270.961 157.091 L 270.961 129.039 295.584 129.039 L 320.208 129.039 320.208 157.091 L 320.208 185.143 347.325 185.143 L 374.442 185.143 374.442 104.519 L 374.442 23.896 347.325 23.896 L 320.208 23.896 320.208 51.948 L 320.208 80.000 295.584 80.000 L 270.961 80.000 270.961 51.948 L 270.961 23.896 243.844 23.896 L 216.727 23.896 216.727 104.519 M28.468 293.922 L 28.468 374.649 55.688 374.649 L 82.909 374.649 82.909 318.463 L 82.909 262.276 134.649 262.391 L 186.390 262.506 186.390 237.850 L 186.390 213.195 107.429 213.195 L 28.468 213.195 28.468 293.922 M216.727 295.584 L 216.727 376.312 295.584 376.312 L 374.442 376.312 374.442 351.688 L 374.442 327.065 322.701 327.065 L 270.961 327.065 270.961 295.584 L 270.961 264.104 322.701 264.104 L 374.442 264.104 374.442 239.481 L 374.442 214.857 295.584 214.857 L 216.727 214.857 216.727 295.584 " stroke="none" fill="#ec1c24" fill-rule="evenodd"></path><path id="path3" d="M65.714 19.481 C 88.657 19.510,126.200 19.510,149.143 19.481 C 172.086 19.451,153.314 19.428,107.429 19.428 C 61.543 19.428,42.771 19.451,65.714 19.481 M243.896 19.480 L 275.325 19.534 275.325 47.585 L 275.325 75.636 295.584 75.636 L 315.844 75.636 315.844 47.584 L 315.844 19.532 347.325 19.532 L 378.805 19.532 378.805 104.519 L 378.805 189.506 347.325 189.506 L 315.844 189.506 315.844 161.455 L 315.844 133.403 295.584 133.403 L 275.325 133.403 275.325 161.454 L 275.325 189.505 243.792 189.559 L 212.260 189.612 243.844 189.611 L 275.429 189.610 275.481 161.610 L 275.534 133.610 295.584 133.610 L 315.635 133.610 315.688 161.610 L 315.740 189.610 347.325 189.610 L 378.909 189.610 378.909 104.519 L 378.909 19.429 347.325 19.429 L 315.740 19.429 315.688 47.429 L 315.635 75.429 295.584 75.429 L 275.534 75.429 275.481 47.429 L 275.429 19.429 243.948 19.428 L 212.468 19.427 243.896 19.480 M271.064 51.792 L 271.065 79.896 295.584 79.896 L 320.104 79.896 320.105 51.740 L 320.106 23.584 320.052 51.688 L 319.999 79.792 295.584 79.792 L 271.170 79.792 271.117 51.740 L 271.063 23.688 271.064 51.792 M374.493 104.364 L 374.442 185.143 347.325 185.143 L 320.209 185.143 320.157 157.143 L 320.104 129.143 295.584 129.143 L 271.065 129.143 271.012 157.142 L 270.960 185.141 243.895 185.195 L 216.831 185.249 243.948 185.248 L 271.065 185.247 271.118 157.247 L 271.170 129.247 295.584 129.247 L 319.998 129.247 320.051 157.247 L 320.104 185.247 347.279 185.299 C 368.910 185.341,374.474 185.299,374.553 185.092 C 374.607 184.948,374.628 148.551,374.598 104.208 L 374.545 23.584 374.493 104.364 M113.108 131.688 C 127.374 131.718,150.657 131.718,164.848 131.688 C 179.039 131.659,167.366 131.635,138.909 131.635 C 110.452 131.635,98.841 131.659,113.108 131.688 M108.727 136.052 C 122.984 136.081,146.314 136.081,160.571 136.052 C 174.829 136.022,163.164 135.998,134.649 135.998 C 106.135 135.998,94.470 136.022,108.727 136.052 M67.896 185.299 C 89.639 185.328,125.218 185.328,146.961 185.299 C 168.704 185.270,150.914 185.246,107.429 185.246 C 63.943 185.246,46.153 185.270,67.896 185.299 M65.818 189.662 C 88.704 189.691,126.153 189.691,149.039 189.662 C 171.925 189.633,153.200 189.609,107.429 189.609 C 61.657 189.609,42.932 189.633,65.818 189.662 M378.906 239.377 C 378.906 255.319,378.931 261.842,378.961 253.870 C 378.991 245.899,378.991 232.855,378.961 224.883 C 378.931 216.912,378.906 223.434,378.906 239.377 M374.542 239.481 C 374.542 253.081,374.567 258.614,374.597 251.776 C 374.628 244.939,374.628 233.811,374.597 227.049 C 374.567 220.286,374.542 225.881,374.542 239.481 M271.062 295.584 C 271.062 312.956,271.087 320.032,271.117 311.308 C 271.147 302.585,271.147 288.372,271.117 279.724 C 271.087 271.076,271.062 278.213,271.062 295.584 M92.416 266.753 C 95.301 266.786,100.023 266.786,102.909 266.753 C 105.795 266.720,103.434 266.694,97.662 266.694 C 91.891 266.694,89.530 266.720,92.416 266.753 M275.426 295.584 C 275.426 310.556,275.450 316.650,275.480 309.127 C 275.511 301.604,275.511 289.354,275.480 281.906 C 275.450 274.458,275.426 280.613,275.426 295.584 M378.906 351.792 C 378.906 367.735,378.931 374.257,378.961 366.286 C 378.991 358.314,378.991 345.270,378.961 337.299 C 378.931 329.327,378.906 335.849,378.906 351.792 M374.542 351.688 C 374.542 365.288,374.567 370.821,374.597 363.984 C 374.628 357.147,374.628 346.019,374.597 339.257 C 374.567 332.494,374.542 338.088,374.542 351.688 " stroke="none" fill="#4c7cbc" fill-rule="evenodd"></path><path id="path4" d="M67.896 23.844 C 89.639 23.873,125.218 23.873,146.961 23.844 C 168.704 23.815,150.914 23.791,107.429 23.791 C 63.943 23.791,46.153 23.815,67.896 23.844 M230.302 23.844 C 237.825 23.874,250.074 23.874,257.523 23.844 C 264.971 23.814,258.816 23.789,243.844 23.789 C 228.873 23.789,222.779 23.814,230.302 23.844 M333.782 23.844 C 341.306 23.874,353.555 23.874,361.003 23.844 C 368.451 23.814,362.296 23.789,347.325 23.789 C 332.353 23.789,326.259 23.814,333.782 23.844 M89.210 262.390 C 92.732 262.421,98.436 262.421,101.885 262.389 C 105.334 262.357,102.452 262.331,95.481 262.331 C 88.509 262.331,85.687 262.358,89.210 262.390 " stroke="none" fill="#ec644c" fill-rule="evenodd"></path><path id="path5" d="" stroke="none" fill="#1c6cb4" fill-rule="evenodd"></path><path id="path6" d="" stroke="none" fill="#3848b0" fill-rule="evenodd"></path><path id="path7" d="" stroke="none" fill="#3848b0" fill-rule="evenodd"></path><path id="path8" d="" stroke="none" fill="#3848b0" fill-rule="evenodd"></path></g></svg>