<?xml version="1.0" standalone="no"?>
<!DOCTYPE svg PUBLIC "-//W3C//DTD SVG 20010904//EN"
 "http://www.w3.org/TR/2001/REC-SVG-20010904/DTD/svg10.dtd">
<svg version="1.0" xmlns="http://www.w3.org/2000/svg"
 width="1925.000000pt" height="1925.000000pt" viewBox="0 0 1925.000000 1925.000000"
 preserveAspectRatio="xMidYMid meet">
<metadata>
Created by potrace 1.16, written by Peter Selinger 2001-2019
</metadata>
<g transform="translate(0.000000,1925.000000) scale(0.100000,-0.100000)"
fill="#000000" stroke="none">
<path d="M0 9625 l0 -9625 9625 0 9625 0 0 9625 0 9625 -9625 0 -9625 0 0
-9625z m9180 7300 l0 -1395 -2490 0 -2490 0 0 -1310 0 -1310 2490 0 2490 0 0
-1390 0 -1390 -4010 0 -4010 0 0 4095 0 4095 4010 0 4010 0 0 -1395z m4072 43
l3 -1353 970 0 970 0 3 1353 2 1352 1515 0 1515 0 0 -4095 0 -4095 -1515 0
-1515 0 -2 1348 -3 1347 -970 0 -970 0 -3 -1347 -2 -1348 -1515 0 -1515 0 0
4095 0 4095 1515 0 1515 0 2 -1352z m-4072 -9163 l0 -1395 -2490 0 -2490 0 0
-2700 0 -2700 -1520 0 -1520 0 0 4095 0 4095 4010 0 4010 0 0 -1395z m9050
-80 l0 -1395 -2490 0 -2490 0 0 -1305 0 -1305 2490 0 2490 0 0 -1395 0 -1395
-4005 0 -4005 0 0 4095 0 4095 4005 0 4005 0 0 -1395z"/>
<path d="M1370 14220 l0 -3880 3800 0 3800 0 0 1180 0 1180 -2490 0 -2490 0 0
1520 0 1520 2490 0 2490 0 0 1180 0 1180 -3800 0 -3800 0 0 -3880z"/>
<path d="M10430 14220 l0 -3880 1305 0 1305 0 0 1350 0 1350 1185 0 1185 0 0
-1350 0 -1350 1305 0 1305 0 0 3880 0 3880 -1305 0 -1305 0 0 -1350 0 -1350
-1185 0 -1185 0 0 1350 0 1350 -1305 0 -1305 0 0 -3880z"/>
<path d="M1370 5105 l0 -3885 1310 0 1310 0 0 2704 0 2704 2490 -6 2490 -5 0
1186 0 1187 -3800 0 -3800 0 0 -3885z"/>
<path d="M10430 5025 l0 -3885 3795 0 3795 0 0 1185 0 1185 -2490 0 -2490 0 0
1515 0 1515 2490 0 2490 0 0 1185 0 1185 -3795 0 -3795 0 0 -3885z"/>
</g>
</svg>
