<?xml version="1.0" standalone="no"?>
<!DOCTYPE svg PUBLIC "-//W3C//DTD SVG 20010904//EN"
 "http://www.w3.org/TR/2001/REC-SVG-20010904/DTD/svg10.dtd">
<svg version="1.0" xmlns="http://www.w3.org/2000/svg"
 width="1000.000000pt" height="800.000000pt" viewBox="0 0 1000.000000 800.000000"
 preserveAspectRatio="xMidYMid meet">
<metadata>
Created by potrace 1.16, written by Peter Selinger 2001-2019
</metadata>
<g transform="translate(0.000000,800.000000) scale(0.100000,-0.100000)"
fill="#000000" stroke="none">
<path d="M4868 6733 c2 -16 9 -33 14 -39 5 -8 3 -18 -7 -28 -15 -14 -15 -16
-1 -16 25 0 20 -39 -6 -44 -13 -3 -160 -10 -328 -17 -404 -16 -561 -25 -462
-27 42 -1 72 -6 72 -12 0 -7 6 -7 20 0 18 10 20 8 20 -24 0 -19 5 -38 11 -42
6 -3 43 -7 82 -9 40 -1 90 -3 112 -4 l40 -2 -25 -15 -25 -15 27 4 c20 3 25 0
20 -11 -4 -11 -1 -14 12 -9 10 4 15 3 11 -3 -3 -6 -1 -10 4 -10 6 0 11 -9 11
-20 0 -11 5 -20 11 -20 5 0 7 4 4 10 -3 6 1 7 9 4 33 -13 14 -24 -40 -24 -34
0 -53 4 -49 10 3 6 1 10 -4 10 -6 0 -11 -4 -11 -10 0 -6 -32 -10 -75 -10 -43
0 -75 4 -75 10 0 6 -5 10 -11 10 -5 0 -8 -4 -4 -9 3 -5 -3 -12 -12 -14 -10 -3
23 -5 72 -6 110 -1 196 -11 190 -21 -3 -4 15 -11 40 -14 l45 -7 0 -160 0 -159
-67 -1 c-58 0 -64 -2 -40 -11 15 -5 27 -14 27 -19 0 -5 14 -9 30 -9 17 0 30
-4 30 -10 0 -6 55 -10 146 -10 126 0 145 -2 140 -15 -4 -10 1 -15 15 -15 11 0
17 -4 14 -10 -3 -5 -2 -10 4 -10 5 0 11 6 14 13 2 6 7 9 11 5 13 -11 -18 -48
-41 -48 -20 0 -21 -4 -16 -46 3 -33 1 -49 -9 -55 -7 -5 -80 -9 -163 -8 -157 1
-187 -3 -178 -27 4 -11 39 -14 184 -14 l178 0 -2 -145 -2 -145 30 -1 c17 0 39
-4 50 -9 18 -8 18 -9 -6 -9 -22 -1 -26 -6 -26 -31 0 -27 4 -30 31 -31 29 -1
28 -2 -9 -10 -22 -4 -139 -9 -260 -10 -121 -1 -209 -4 -195 -6 14 -3 29 -11
33 -19 6 -11 44 -14 188 -14 114 0 178 -4 174 -10 -6 -10 17 -17 75 -23 l35
-4 -38 -1 c-23 -1 -36 -6 -32 -12 4 -6 11 -8 16 -5 5 4 9 0 9 -9 0 -8 -6 -17
-12 -19 -10 -4 -10 -6 0 -6 6 -1 12 -14 12 -30 0 -16 -6 -32 -12 -34 -10 -4
-10 -6 0 -6 18 -1 14 -29 -5 -34 -10 -3 0 -6 22 -7 l40 -3 -45 -8 c-25 -4
-139 -11 -255 -15 -115 -5 -202 -10 -192 -12 9 -2 17 -8 17 -13 0 -5 73 -9
173 -9 198 0 208 -3 204 -65 l-2 -40 -225 -5 c-255 -6 -234 -20 31 -20 86 0
165 -3 173 -6 15 -6 15 -7 1 -18 -18 -13 -10 -49 9 -40 6 3 4 0 -5 -8 -9 -7
-14 -19 -11 -26 3 -10 -30 -12 -150 -12 -145 1 -233 -10 -198 -23 8 -4 29 -7
45 -9 l30 -3 3 -167 2 -168 -57 -1 c-32 0 -51 -3 -43 -6 8 -3 19 -12 23 -19 6
-11 42 -14 157 -14 81 0 155 -3 164 -6 16 -6 11 -33 -8 -46 -7 -5 -7 -8 -1 -8
6 0 10 -16 11 -35 0 -19 -4 -35 -9 -35 -5 0 -4 -6 3 -14 6 -8 18 -12 26 -9 8
3 14 0 14 -5 0 -6 -10 -12 -22 -14 -46 -6 -17 -23 49 -29 38 -3 53 -6 36 -7
-35 -2 -47 -22 -13 -22 30 0 24 -18 -7 -23 l-28 -4 28 -2 c16 0 27 -7 27 -15
0 -8 -12 -17 -27 -19 l-28 -4 28 -2 c15 0 27 -5 27 -10 0 -5 -12 -12 -27 -14
l-28 -4 28 -2 c44 -2 35 -31 -10 -32 l-38 -2 40 -6 40 -6 -30 -8 c-16 -5 -119
-11 -228 -14 -194 -5 -197 -6 -176 -24 12 -11 22 -20 23 -20 1 -1 64 -4 140
-8 112 -5 140 -9 143 -21 4 -13 3 -13 -6 0 -8 11 -11 4 -11 -30 0 -34 3 -41
11 -30 9 13 10 13 7 0 -7 -22 -42 -28 -183 -29 -71 -1 -137 -6 -145 -11 -17
-11 5 -12 175 -10 114 1 135 -4 135 -32 0 -13 -4 -17 -12 -12 -10 6 -10 5 -1
-7 7 -8 10 -25 6 -37 -5 -21 -9 -22 -150 -22 -128 0 -144 -2 -133 -15 7 -8 28
-15 46 -15 l34 0 0 -170 0 -170 -46 0 c-27 0 -43 -4 -39 -10 3 -5 19 -10 36
-10 16 0 29 -4 29 -10 0 -5 19 -10 43 -10 76 0 86 -7 82 -51 -2 -21 -6 -48
-10 -58 -3 -11 -7 -28 -9 -38 -2 -10 -6 -24 -8 -32 -2 -8 8 -17 22 -22 17 -5
5 -7 -40 -8 -83 -2 -141 -11 -134 -22 3 -5 17 -9 31 -9 20 0 24 -4 20 -20 -4
-16 0 -20 22 -20 39 0 41 -6 20 -50 -11 -21 -19 -43 -19 -48 0 -6 -7 -12 -15
-16 -8 -3 -15 -12 -15 -21 0 -8 -7 -15 -15 -15 -8 0 -15 -8 -16 -17 0 -11 -3
-13 -6 -5 -7 18 -24 14 -21 -5 2 -13 -3 -17 -19 -16 -13 2 -23 -2 -23 -9 0 -6
-8 -4 -18 5 -10 10 -21 15 -23 13 -2 -2 -3 19 -3 47 l2 52 -7 -50 -6 -50 -70
-3 c-38 -1 -75 1 -82 6 -8 5 -13 40 -14 96 -1 48 -5 84 -9 79 -10 -10 -17
-369 -8 -378 4 -4 58 -7 120 -8 77 0 122 -5 142 -15 48 -23 13 -32 -131 -32
-155 0 -146 9 -141 -134 l3 -89 60 -15 c43 -11 60 -12 63 -3 5 15 42 14 79 -2
58 -24 28 -37 -87 -37 -120 0 -120 0 -120 -70 0 -25 6 -42 16 -48 15 -8 15
-10 0 -15 -11 -5 -16 -19 -16 -52 0 -25 -4 -45 -10 -45 -6 0 -11 101 -13 268
l-2 267 -3 -277 -2 -278 -70 0 -70 0 0 2189 0 2188 -272 119 c-271 117 -406
174 -414 174 -2 0 -4 -34 -4 -75 0 -47 -4 -75 -11 -75 -7 0 -9 26 -7 76 l3 76
-60 -7 c-123 -14 -115 -7 -115 -95 l0 -77 -112 -6 c-62 -4 -134 -7 -159 -7
l-45 0 16 63 c8 34 18 67 22 72 4 7 -5 10 -25 8 -217 -17 -315 -28 -442 -49
-176 -29 -459 -96 -430 -102 28 -6 43 -22 20 -22 -10 0 -16 -2 -13 -5 3 -3 26
-1 52 5 25 5 63 13 84 16 20 3 51 9 67 15 38 11 86 8 82 -6 -2 -5 -9 -11 -15
-11 -7 -1 -13 -2 -14 -3 -2 -1 -19 -4 -38 -7 -19 -2 -42 -7 -50 -11 -8 -3 -22
-7 -30 -9 -8 -2 -35 -10 -60 -18 -30 -9 -37 -14 -22 -15 15 -1 21 -5 16 -13
-5 -8 -2 -9 9 -5 10 3 17 3 17 -1 0 -7 -114 -42 -135 -42 -4 0 -5 29 -3 65 3
70 -1 74 -59 59 -21 -6 -23 -12 -23 -79 l0 -73 45 6 45 5 1 -279 c2 -1081 -2
-3838 -5 -3842 -3 -2 -23 -1 -45 3 l-41 7 -2 2046 -3 2047 -160 27 c-88 15
-168 27 -177 27 -15 1 -18 -8 -18 -63 0 -42 -4 -66 -12 -69 -10 -4 -10 -6 0
-6 10 -1 12 -395 10 -1973 -2 -1944 -4 -2255 -18 -2173 -6 31 -8 18 -10 -55
-2 -58 -5 -83 -9 -64 -4 21 -11 30 -22 29 -14 -2 -17 18 -23 154 -4 86 -9 157
-11 159 -1 2 -49 14 -106 27 -57 13 -124 31 -148 39 -24 9 -46 14 -48 12 -3
-2 5 -7 16 -11 12 -3 21 -10 21 -14 0 -16 -72 -226 -81 -235 -5 -6 -1 -18 9
-30 16 -20 16 -20 -3 -7 -11 8 -30 26 -42 40 l-23 26 0 -32 c0 -37 4 -40 324
-213 l189 -102 86 10 c47 6 88 7 91 3 5 -8 141 -41 180 -44 16 -1 20 -8 20
-33 0 -18 6 -34 13 -37 6 -2 335 -51 729 -107 l717 -103 108 43 c59 24 113 43
118 42 27 -3 282 -11 367 -12 l97 0 3 -58 3 -57 973 -3 972 -2 1 62 c0 35 3
57 6 50 2 -6 9 -9 14 -6 5 3 122 6 260 6 l250 1 85 -33 85 -33 342 47 c188 26
513 73 722 104 l380 57 5 60 c5 57 5 58 13 25 4 -20 11 -30 15 -24 4 7 51 20
104 30 53 10 95 21 93 24 -2 3 22 3 53 -1 116 -15 112 -16 112 46 0 42 4 55
15 55 12 0 15 32 17 190 2 134 0 190 -8 190 -7 0 -14 31 -18 77 -3 43 -6 925
-6 1960 0 1659 2 1884 15 1889 12 5 15 22 13 78 l-2 71 -6 -70 -6 -70 -2 68
-2 68 -47 -7 c-27 -4 -106 -16 -178 -28 l-129 -21 3 -2046 3 -2047 -29 -6
c-15 -3 -54 -8 -85 -12 l-58 -6 -1 168 c0 157 0 1500 1 1517 0 4 9 7 21 7 12
0 18 4 13 11 -4 7 -7 128 -6 270 1 218 -2 259 -14 259 -15 0 -18 87 -16 428 1
78 -3 132 -8 132 -11 0 -12 -452 -1 -650 3 -70 2 -128 -2 -131 -5 -4 -3 -9 4
-12 12 -4 11 -7 -1 -16 -8 -6 -10 -11 -4 -11 7 0 10 -25 8 -72 -1 -40 -3 -99
-3 -130 -1 -33 -6 -58 -11 -58 -7 0 -10 56 -9 158 3 304 1 362 -16 362 -13 0
-15 -35 -15 -254 0 -140 -3 -262 -7 -272 -5 -14 -2 -16 20 -12 l27 5 0 -231
c0 -127 0 -511 0 -853 0 -551 1 -623 15 -623 13 0 15 -27 15 -194 0 -107 -3
-197 -7 -199 -13 -8 -233 -55 -289 -62 -39 -5 -51 -3 -51 7 0 62 -39 355 -47
360 -6 4 8 10 31 14 32 5 40 10 36 23 -4 12 -3 13 5 2 8 -11 32 -8 143 14 124
25 164 36 128 35 -8 -1 -43 -6 -79 -13 -36 -7 -76 -10 -90 -6 -14 4 -18 7 -10
8 8 1 21 10 27 21 11 16 10 18 -3 13 -8 -3 -14 -2 -13 3 3 20 -2 35 -10 29 -5
-3 -12 -1 -15 4 -4 5 -2 12 3 15 5 4 12 2 16 -4 8 -13 25 -13 25 1 0 6 -9 13
-20 16 -11 3 -17 10 -13 16 10 16 3 101 -9 108 -12 8 -1 49 14 49 5 0 8 7 5
15 -4 8 -1 18 6 22 7 4 -3 12 -28 19 l-40 12 30 7 c46 11 61 17 49 21 -6 3 -9
20 -8 40 3 34 2 35 -28 32 -48 -5 -44 18 4 29 24 6 33 11 21 12 -30 1 -37 17
-16 38 21 21 24 63 22 296 -1 57 -4 77 -14 77 -25 0 -25 17 0 44 21 23 24 36
24 94 -1 37 0 72 1 77 1 6 2 13 1 18 0 4 7 8 17 8 9 1 4 4 -13 8 -21 4 -31 13
-33 29 -2 15 2 22 12 22 9 0 16 7 16 15 0 17 17 20 22 4 2 -6 9 5 15 24 6 20
8 36 4 35 -38 -4 -41 1 -41 76 l0 73 30 6 c32 7 41 27 13 27 -15 0 -13 4 7 20
l25 20 -37 0 c-31 0 -38 4 -38 20 0 14 7 20 23 20 29 0 47 18 47 47 0 13 6 23
12 23 25 0 -31 30 -60 32 -38 3 -31 18 8 18 16 0 31 4 34 9 3 5 -2 8 -11 7
-13 -1 -18 7 -19 29 0 17 3 36 9 43 7 9 2 12 -19 13 -16 1 -33 1 -37 0 -5 -1
-6 3 -2 9 3 6 11 7 17 4 7 -5 9 -1 5 9 -5 13 -1 17 16 17 35 0 67 12 61 22 -3
5 -1 14 5 21 13 16 0 38 -25 41 -22 3 -30 57 -17 118 11 53 35 35 38 -28 1
-27 4 -58 5 -69 4 -31 18 91 19 171 1 80 -2 84 -70 84 -21 0 -39 3 -39 6 0 15
32 34 68 40 l40 6 1 149 2 149 -47 0 c-39 0 -45 2 -34 14 6 8 28 16 48 18 30
2 38 7 40 27 2 12 1 34 -2 47 -5 20 -13 24 -44 25 l-37 1 40 12 c42 13 53 34
41 82 -5 17 -13 24 -30 24 -14 0 -32 3 -42 7 -13 5 -6 9 27 17 l44 11 3 98 c2
73 -1 98 -10 101 -7 3 -25 7 -40 10 -33 7 -38 26 -7 26 11 0 29 5 40 10 18 10
19 23 19 173 0 148 -6 190 -24 188 -32 -4 -36 3 -8 15 l33 14 -3 88 -3 87 -35
6 c-19 4 -25 7 -14 8 12 0 25 8 28 17 3 8 10 12 16 9 6 -4 10 38 10 119 0 69
-1 128 -2 131 -2 2 6 11 18 19 18 13 21 26 23 88 1 40 4 74 6 77 5 4 7 -230 5
-551 -1 -104 3 -159 10 -163 8 -5 11 19 10 82 -1 48 -1 231 -1 406 l1 319 63
-7 c34 -3 70 -9 80 -12 16 -4 18 2 15 74 l-3 78 -80 11 c-44 7 -135 26 -201
43 -242 61 -552 105 -962 135 -112 9 -207 18 -212 21 -6 4 -10 -25 -10 -72 0
-76 -1 -79 -26 -89 -22 -7 -13 -9 46 -11 40 -1 74 -4 77 -7 3 -3 7 -159 10
-348 2 -189 6 -348 8 -354 2 -7 46 -14 112 -18 144 -10 143 -9 143 -58 l0 -40
-87 6 c-49 4 -107 9 -130 13 l-43 5 0 -1253 0 -1254 123 6 c67 3 126 3 130 -1
5 -4 7 -23 5 -41 l-3 -34 -127 -9 -128 -8 0 -521 c1 -293 -3 -524 -8 -529 -5
-5 -35 -12 -66 -15 l-56 -6 0 2217 0 2216 -24 -6 c-24 -6 -24 -5 -25 87 -1 51
-3 94 -4 95 -1 1 -142 -59 -313 -133 l-310 -135 0 -2186 1 -2187 -122 -3 -121
-3 -5 68 c-2 37 -4 590 -4 1228 0 2214 -2 2635 -16 2635 -8 0 -9 3 -1 8 9 6
23 361 24 595 0 15 12 17 120 17 l120 0 0 83 0 84 -207 7 c-115 3 -287 11
-383 16 -96 5 -257 9 -356 9 l-181 1 5 -27z m-1513 -225 c32 -14 32 -28 0 -28
l-25 0 0 -2216 0 -2217 -62 7 c-35 4 -82 9 -105 12 l-43 6 0 124 c0 76 -4 124
-10 124 -5 0 -10 8 -10 18 0 15 -2 15 -11 2 -9 -13 -10 -13 -6 0 2 8 10 15 18
15 9 0 14 11 14 35 0 34 -1 35 -44 40 -63 7 -63 26 0 21 l50 -3 -3 48 -3 49
-47 3 c-64 4 -62 22 2 22 28 0 50 5 50 10 0 6 -9 10 -19 10 -25 0 -38 20 -20
30 7 5 16 7 20 4 4 -2 11 1 15 7 4 6 -1 16 -10 21 -21 12 -22 83 -2 91 20 8
19 84 -1 95 -11 7 -14 27 -11 95 3 76 1 87 -14 87 -9 0 -19 4 -23 9 -7 12 39
63 48 54 4 -3 7 4 7 16 0 12 -7 24 -17 28 -13 5 -12 8 8 16 l24 10 -30 6 c-20
4 -26 9 -17 14 6 5 17 5 22 2 6 -3 10 -1 10 4 0 6 -7 11 -15 11 -21 0 -19 20
3 21 16 1 16 2 0 6 -22 5 -24 23 -3 23 21 0 19 20 -2 21 -16 0 -15 1 2 8 16 7
14 9 -13 14 -37 7 -41 21 -12 37 19 10 20 21 20 165 0 97 -4 155 -10 155 -6 0
-10 -41 -11 -102 -1 -181 -3 -201 -19 -206 -12 -4 -13 -2 -4 9 6 8 11 24 12
37 1 26 -29 42 -79 42 l-29 0 0 80 0 80 53 0 c28 0 47 4 41 8 -19 12 -23 73
-5 80 11 4 8 9 -14 18 -17 7 -23 13 -13 14 13 0 15 7 11 40 -4 24 -1 46 7 54
10 13 8 16 -12 21 -21 6 -24 11 -23 53 1 26 3 48 5 50 1 1 3 6 4 11 0 5 4 13
8 17 4 4 0 13 -10 20 -10 8 -12 13 -4 14 7 0 11 13 11 33 -2 29 -2 29 -6 5 -6
-39 -20 -44 -108 -38 l-80 5 65 8 c65 9 65 9 35 22 -16 7 -24 14 -17 14 18 1
14 49 -5 60 -17 10 -17 10 0 11 9 0 17 5 17 10 0 6 -8 10 -17 10 -15 0 -15 1
1 13 14 10 15 18 7 40 -10 24 -8 29 12 37 15 6 -19 9 -105 9 l-128 1 0 39 c0
37 2 39 38 45 20 3 78 7 127 8 l90 2 -80 5 -80 6 90 5 c77 4 93 8 113 28 23
23 23 24 3 29 -11 3 -18 9 -15 15 3 5 0 16 -8 25 -10 13 -11 17 0 21 8 2 10 8
4 15 -5 7 -12 42 -15 79 -5 52 -3 71 8 82 9 8 11 17 7 20 -15 9 -12 67 4 73
20 7 17 21 -6 28 -21 7 -24 43 -5 58 6 4 3 13 -9 22 -18 13 -17 14 8 21 31 7
25 24 -9 24 -23 0 -24 3 -22 50 1 30 6 50 13 50 6 0 17 7 24 15 10 12 9 16 -5
21 -13 5 -14 9 -3 15 9 6 4 9 -14 9 -25 0 -28 4 -28 35 0 31 3 35 28 36 19 1
21 3 8 6 -15 4 -16 7 -5 13 9 6 6 10 -14 15 -28 7 -37 25 -13 25 24 0 38 26
22 40 -13 10 -12 15 10 35 23 22 24 23 4 28 -16 4 -20 13 -20 44 0 22 3 43 7
47 11 11 5 260 -7 264 -6 2 1 13 16 24 21 17 23 23 12 29 -11 6 -14 27 -12 86
1 49 -2 81 -10 85 -7 5 -8 8 0 8 6 0 12 24 13 57 1 32 6 60 12 64 7 4 4 9 -6
12 -13 6 -15 18 -10 79 3 40 11 78 18 83 15 12 18 65 4 65 -5 0 2 12 17 27 27
27 27 27 6 38 -21 11 -21 11 -1 29 19 17 34 86 19 86 -4 0 -7 16 -6 35 1 19 6
35 12 35 6 0 4 5 -4 10 -13 8 -12 10 3 10 12 0 17 -8 17 -26 0 -15 4 -23 11
-18 6 3 8 15 6 26 -4 14 -2 18 9 14 8 -3 14 -2 14 3 0 4 35 11 78 14 42 3 91
9 109 13 l32 6 4 -78 3 -79 2 83 c2 89 6 93 57 70z m1405 -359 l0 -159 -80 0
-80 0 0 158 c0 87 2 161 4 163 2 2 38 3 80 1 l76 -4 0 -159z m-2709 -163 l-2
-165 23 -5 c13 -3 46 -8 73 -12 39 -5 46 -8 30 -15 -11 -4 -39 -8 -62 -8 -72
-2 -73 -3 -73 -96 0 -55 4 -86 12 -91 7 -4 31 -7 55 -5 26 1 43 -2 43 -8 0 -6
-9 -12 -20 -12 -11 -1 -24 -3 -30 -4 -5 -1 -21 -3 -35 -4 l-25 -1 0 -173 c0
-174 5 -202 36 -190 19 7 108 -7 99 -15 -4 -4 -34 -9 -68 -12 l-62 -5 -3 -98
c-3 -110 3 -125 55 -119 18 2 41 0 50 -4 13 -6 0 -10 -42 -14 l-60 -5 -3 -37
c-2 -20 2 -46 7 -57 7 -13 8 -22 1 -26 -13 -8 -13 -75 0 -95 6 -10 23 -13 55
-11 32 2 45 -1 41 -8 -4 -6 -27 -11 -52 -11 l-45 0 3 -152 3 -153 40 -7 c22
-4 54 -10 70 -14 l30 -8 -25 -7 c-14 -4 -49 -7 -77 -8 l-53 -1 0 -174 c0 -183
2 -193 45 -188 11 1 38 -4 60 -12 47 -17 35 -24 -45 -28 l-55 -3 -3 -44 c-2
-28 1 -47 10 -52 10 -7 10 -11 0 -21 -27 -27 -4 -134 24 -109 5 4 29 3 54 -3
l45 -11 -62 -3 -63 -3 0 -153 0 -153 40 -7 c21 -3 52 -12 67 -19 26 -11 23
-12 -42 -17 l-70 -5 -3 -88 c-2 -51 2 -94 7 -101 6 -7 24 -11 39 -8 31 4 92
-21 92 -38 0 -11 -17 -13 -90 -14 l-45 -1 -3 -169 c-1 -103 1 -173 8 -181 5
-6 26 -12 45 -13 38 -1 101 -30 75 -33 -8 -2 -40 -3 -70 -3 l-55 -1 -3 -102
-3 -102 28 -6 c118 -25 137 -49 37 -50 l-59 0 -3 -49 c-2 -27 1 -52 7 -55 5
-4 4 -14 -5 -25 -12 -17 -14 23 -15 310 -1 695 -3 878 -10 829 -4 -27 -9 -266
-11 -530 -1 -264 -5 278 -8 1205 -4 1481 -1 2160 9 1965 7 -120 19 -123 20 -5
1 85 4 111 12 103 8 -8 11 -65 10 -177z m284 -312 l0 -39 -50 -6 c-27 -3 -87
-9 -132 -13 l-83 -7 0 40 c0 23 1 41 3 42 11 3 244 26 252 24 6 -1 10 -19 10
-41z m2423 -1106 l2 -168 -80 0 -80 0 0 163 c0 90 3 167 7 171 4 4 39 5 78 4
l70 -3 3 -167z m75 166 c3 -4 2 -15 -3 -25 -7 -12 -6 -19 3 -23 9 -5 9 -7 0
-12 -28 -13 -10 -23 44 -26 40 -2 58 -7 60 -18 4 -13 3 -13 -6 0 -9 13 -13 11
-31 -8 -22 -24 -19 -42 7 -42 10 0 14 6 10 20 -3 11 -2 18 3 15 14 -9 20 -53
10 -79 -7 -19 -17 -26 -37 -27 -24 -2 -25 -2 -5 -6 35 -7 15 -23 -31 -24 -23
-1 -34 -3 -24 -6 20 -5 19 -40 -1 -35 -7 1 -13 -8 -13 -20 -1 -13 -5 4 -10 37
-9 62 -10 264 -2 278 5 9 17 9 26 1z m595 -468 l-3 -41 -180 2 -180 3 -3 40
-3 40 173 2 c95 2 179 1 186 -1 9 -2 12 -17 10 -45z m2250 -8 c-2 -24 -6 -42
-10 -40 -5 1 -64 2 -133 2 l-125 0 0 40 0 40 136 0 135 0 -3 -42z m-2970 -624
l52 -7 -1 -36 c0 -35 -1 -35 -11 -11 -9 21 -12 22 -15 8 -3 -10 -10 -18 -16
-19 -7 0 -2 -4 11 -9 21 -9 23 -14 20 -87 l-3 -78 -40 -6 c-25 -4 -31 -7 -15
-8 14 -1 21 -5 15 -9 -17 -12 -13 -52 4 -52 14 0 14 -2 1 -10 -8 -5 -36 -10
-62 -10 l-48 0 0 163 c0 90 3 167 7 170 8 9 33 9 101 1z m-2375 -394 c5 -4 7
-22 5 -40 l-3 -33 -80 1 c-44 2 -104 5 -132 8 l-53 6 0 40 0 40 128 -7 c70 -4
131 -10 135 -15z m2495 -352 l3 -86 -73 -4 c-40 -2 -79 0 -85 5 -14 10 -19
158 -6 171 4 4 41 5 83 4 l75 -3 3 -87z m-450 -229 c4 -51 -11 -59 -95 -52
l-71 6 0 44 0 44 81 -3 82 -3 3 -36z m190 -6 l-3 -48 -80 0 -80 0 -3 48 -3 47
86 0 86 0 -3 -47z m197 2 l0 -40 -82 -3 -83 -3 0 46 0 46 83 -3 82 -3 0 -40z
m-1882 -580 c45 -3 119 -7 165 -11 l82 -6 0 -106 c0 -59 -3 -151 -7 -204 -7
-106 -8 -108 -71 -91 -18 4 -20 8 -10 14 10 7 10 9 1 9 -7 0 -13 5 -13 10 0 6
-17 34 -38 63 -43 58 -90 146 -117 222 -10 28 -23 56 -28 63 -5 6 -6 12 -1 13
20 1 -33 18 -61 18 -22 1 -26 4 -15 10 8 6 18 7 22 5 5 -3 46 -7 91 -9z m1762
-91 c88 -2 165 -6 172 -9 6 -2 14 1 16 8 2 7 8 8 13 4 5 -5 1 -13 -9 -18 -9
-6 -17 -18 -17 -27 0 -35 -85 -224 -119 -264 -50 -59 -79 -107 -68 -112 15 -8
-346 4 -433 14 -51 5 -56 7 -25 9 l40 2 -30 13 c-16 7 -33 12 -36 10 -11 -6
-19 85 -19 212 0 67 -4 125 -8 128 -5 3 -19 -4 -30 -15 -12 -11 -22 -16 -22
-12 0 4 -6 -1 -12 -12 -12 -19 -13 -18 -19 10 -4 18 -8 -8 -9 -70 -3 -125 -17
-84 -19 54 l-1 94 238 -7 c130 -4 309 -10 397 -12z"/>
<path d="M8578 6288 l4 -63 111 -31 c62 -18 113 -31 114 -30 0 0 -5 18 -12 39
-11 33 -11 38 1 33 10 -4 13 2 12 19 -2 18 -12 28 -41 40 -34 14 -174 55 -187
55 -3 0 -4 -28 -2 -62z"/>
<path d="M1335 6314 l-40 -14 35 5 c21 3 30 2 22 -3 -10 -7 -10 -15 -2 -37 6
-16 9 -34 6 -42 -3 -7 -1 -13 3 -13 5 0 12 6 14 13 4 8 6 7 6 -3 1 -10 -29
-24 -97 -45 -172 -52 -302 -129 -302 -178 0 -7 0 -799 0 -1761 l0 -1750 22
-24 c32 -35 125 -75 248 -106 58 -15 113 -30 122 -32 17 -5 18 22 18 465 0
307 -3 471 -10 471 -5 0 -10 16 -10 35 0 19 5 35 10 35 6 0 10 102 10 285 l0
285 -25 0 c-25 0 -25 1 -25 80 0 57 -4 80 -12 80 -9 0 -8 4 2 11 11 8 12 12 3
16 -7 2 -13 9 -13 14 0 6 3 8 8 6 4 -3 8 17 9 44 2 43 0 49 -17 49 -17 0 -20
7 -20 40 0 33 3 40 20 40 18 0 20 7 20 70 0 70 4 77 43 71 4 0 7 235 7 524 0
343 -3 525 -10 525 -5 0 -10 15 -10 34 0 19 5 38 10 41 6 4 10 123 10 324 0
240 3 320 13 330 10 11 10 13 0 7 -10 -5 -13 9 -13 58 0 36 -3 66 -7 65 -5 0
-26 -7 -48 -15z m-239 -242 c-3 -5 -1 -34 3 -65 4 -32 4 -60 0 -63 -5 -2 -5
-12 -2 -21 4 -10 2 -14 -4 -10 -12 8 -12 -11 0 -30 4 -6 1 -14 -5 -17 -7 -3
-1 -4 15 -2 15 2 27 -1 27 -5 0 -5 -4 -9 -10 -9 -5 0 -10 -7 -10 -16 0 -9 -5
-12 -12 -8 -7 5 -8 3 -4 -5 5 -7 14 -10 22 -7 8 3 14 1 14 -3 0 -5 -7 -11 -15
-15 -23 -8 -18 -23 7 -22 20 1 23 -4 24 -49 2 -55 -9 -85 -31 -85 -10 0 -15
-11 -15 -34 0 -25 4 -33 16 -32 28 2 27 -23 0 -35 -14 -7 -23 -16 -20 -20 3
-5 0 -9 -7 -9 -8 0 -8 -4 1 -15 10 -12 10 -15 0 -15 -8 0 -11 -3 -8 -6 4 -3
22 -1 42 4 l36 10 0 -38 c0 -37 -2 -40 -42 -51 -60 -17 -72 -32 -20 -23 47 7
56 -1 16 -16 -22 -9 -25 -14 -19 -38 4 -15 12 -31 18 -35 8 -6 5 -7 -6 -3 -15
5 -17 2 -11 -17 12 -35 7 -61 -17 -79 -12 -10 -16 -18 -10 -18 7 0 9 -9 5 -24
-4 -16 -1 -25 10 -29 9 -4 16 -2 16 3 0 6 12 10 28 10 21 0 24 -2 12 -10 -10
-6 -11 -10 -2 -10 6 0 12 -11 12 -25 0 -21 -5 -25 -29 -25 -17 0 -33 -5 -37
-12 -4 -6 -3 -8 4 -5 12 8 42 -1 42 -12 0 -5 -18 -14 -40 -21 -28 -9 -37 -16
-28 -22 10 -6 10 -10 -2 -18 -13 -8 -12 -10 3 -10 10 0 15 -5 12 -10 -4 -6
-11 -7 -17 -4 -8 5 -9 1 -4 -11 4 -11 2 -22 -5 -26 -9 -5 -8 -12 4 -24 10 -9
17 -22 16 -28 0 -9 -2 -8 -6 1 -7 17 -20 15 -20 -3 0 -15 13 -20 67 -28 25 -4
21 -7 -25 -22 -10 -3 -15 -17 -15 -40 0 -19 -5 -35 -11 -35 -7 0 -10 13 -7 34
2 19 0 32 -4 30 -4 -3 -8 -21 -8 -40 0 -33 1 -34 43 -35 41 -1 42 -1 12 -11
-63 -21 -61 -20 -40 -28 17 -7 17 -9 3 -9 -12 -1 -18 -9 -18 -26 0 -23 4 -25
41 -25 36 0 40 -2 29 -15 -7 -8 -23 -15 -36 -15 -25 0 -35 -29 -11 -31 10 0
10 -2 0 -6 -18 -7 -16 -23 2 -23 16 0 18 -7 18 -65 0 -59 -2 -65 -20 -65 -13
0 -18 -8 -18 -27 -1 -33 10 -43 46 -43 15 0 29 -7 33 -15 4 -11 -1 -15 -17
-15 -12 0 -32 -3 -44 -6 -23 -6 -23 -9 -23 -155 0 -149 0 -149 23 -149 13 0
28 -5 35 -12 13 -13 16 -29 5 -27 -5 1 -20 1 -35 0 -26 -1 -28 -4 -28 -41 0
-37 2 -40 28 -41 l27 -1 -27 -11 c-24 -9 -28 -17 -28 -49 0 -36 5 -41 36 -37
4 0 11 -5 15 -13 6 -9 1 -14 -19 -18 -26 -5 -27 -7 -27 -78 0 -39 4 -72 9 -72
4 0 4 -6 -1 -12 -5 -7 -10 -30 -10 -51 -1 -32 3 -40 29 -53 16 -9 27 -19 23
-22 -7 -7 -12 -8 -40 -11 -12 -1 -15 -17 -15 -79 0 -77 0 -78 30 -89 40 -15
40 -43 0 -43 l-30 0 -2 -122 c-1 -68 -2 -134 -2 -148 -1 -15 7 -28 19 -35 49
-25 51 -30 15 -35 -34 -5 -35 -6 -40 -60 -3 -30 -7 469 -10 1110 -3 641 -8
1174 -12 1185 -3 11 -7 209 -9 441 -4 459 -5 450 54 492 32 22 52 29 43 14z"/>
<path d="M8581 5615 c0 -515 2 -595 14 -595 8 0 15 -9 15 -20 0 -11 -7 -20
-15 -20 -8 0 -15 -7 -15 -15 0 -8 7 -15 15 -15 8 0 15 -9 15 -20 0 -11 -7 -20
-15 -20 -12 0 -14 -50 -14 -347 -1 -198 3 -342 8 -334 5 7 6 28 4 46 -4 31 -2
34 24 37 34 4 36 19 6 33 -26 11 -29 25 -25 133 3 69 6 82 20 82 15 1 15 2 2
13 -14 11 -14 14 3 30 18 18 18 18 17 0 -1 -10 -2 -45 -1 -78 2 -82 21 -52 21
33 l0 62 38 0 c50 0 66 -12 60 -44 -3 -15 -1 -29 3 -32 13 -7 11 -191 -1 -215
-7 -13 -7 -19 0 -19 5 0 13 -1 16 -2 6 -3 6 304 0 364 -3 21 -1 40 3 43 5 2 6
28 3 56 -3 36 -1 54 8 59 10 6 11 12 3 22 -5 7 -9 36 -8 65 1 35 -3 54 -12 57
-18 7 -16 36 3 36 9 0 14 6 12 12 -3 7 2 19 10 27 12 12 12 15 -2 23 -18 10
-22 64 -6 88 6 9 5 17 -3 23 -9 7 -9 10 1 14 10 4 10 8 0 20 -16 20 -18 153
-1 153 6 0 19 7 28 16 14 15 14 17 -1 28 -13 10 -15 23 -9 79 4 40 12 67 19
67 6 0 13 11 14 25 1 14 -3 25 -8 25 -6 0 -10 10 -9 23 0 21 1 21 9 2 6 -13 9
7 9 63 1 75 3 83 23 91 18 6 19 9 5 14 -10 4 -17 11 -17 16 0 6 7 8 15 4 9 -3
15 -2 14 3 -5 30 2 36 34 30 32 -6 34 -5 37 26 2 18 3 52 4 76 0 24 5 41 11
39 11 -4 18 -1617 7 -1617 -4 0 -7 -103 -7 -230 0 -126 3 -230 8 -230 4 0 7
-325 7 -721 l0 -722 -34 -32 c-39 -37 -133 -73 -279 -109 -54 -13 -102 -27
-105 -31 -4 -4 2 -5 13 -2 11 3 70 18 130 32 133 33 245 82 274 122 l21 28 0
1012 c0 899 2 1012 15 1007 8 -4 15 -1 15 5 0 6 -4 11 -9 11 -5 0 -11 14 -15
31 -3 18 -6 354 -6 748 l0 715 -32 33 c-18 18 -37 33 -42 33 -6 0 -4 -5 4 -11
13 -9 13 -10 0 -6 -8 2 -14 10 -13 16 4 17 -104 67 -217 101 -57 16 -106 30
-111 30 -4 0 -8 -268 -8 -595z"/>
</g>
</svg>
